<svg width="218" height="24" viewBox="0 0 218 24" fill="none" xmlns="http://www.w3.org/2000/svg">
<g clip-path="url(#clip0_600_1183)">
<path d="M51.5471 15.4166V15.7981C51.5471 16.3376 52.0679 16.7718 52.7068 16.7718C53.3501 16.7718 53.8665 16.3332 53.8665 15.7981V15.4166C53.8665 14.8771 53.3457 14.4429 52.7068 14.4429C52.0679 14.4429 51.5471 14.8771 51.5471 15.4166Z" fill="#FF8300"/>
<path d="M32.4931 11.7764V12.158C32.4931 12.6975 32.992 13.1317 33.6091 13.1317C34.2261 13.1317 34.725 12.6975 34.725 12.158V11.7764C34.725 11.2413 34.2217 10.8027 33.6047 10.8027C32.9877 10.8027 32.4888 11.2413 32.4888 11.7764" fill="#FF8300"/>
<path d="M35.084 11.7764V12.158C35.084 12.6975 35.5872 13.1317 36.1999 13.1317C36.817 13.1317 37.3202 12.6975 37.3202 12.158V11.7764C37.3202 11.2413 36.817 10.8027 36.1999 10.8027C35.5829 10.8027 35.084 11.2413 35.084 11.7764Z" fill="#FF8300"/>
<path d="M37.6702 11.7764V12.158C37.6702 12.6975 38.1691 13.1317 38.7905 13.1317C39.4075 13.1317 39.9064 12.6975 39.9064 12.158V11.7764C39.9064 11.2413 39.4031 10.8027 38.7861 10.8027C38.169 10.8027 37.6702 11.2413 37.6702 11.7764Z" fill="#FF8300"/>
<path d="M76.6403 15.3728L76.3339 15.5964C75.905 15.9122 75.8525 16.5701 76.2158 17.0657C76.579 17.5614 77.2223 17.7017 77.6512 17.3859L77.9575 17.1622C78.3864 16.8464 78.4389 16.1842 78.0756 15.6929C77.7124 15.1973 77.0691 15.057 76.6446 15.3728" fill="#FF8300"/>
<path d="M69.8397 4.71045L68.3868 2.85957C68.0324 2.38588 67.319 2.32887 66.7939 2.7236C66.2688 3.11834 66.1287 3.8201 66.4876 4.29817L67.9405 6.14904C68.2949 6.62273 69.0083 6.68413 69.5334 6.28939C70.0542 5.89466 70.1942 5.18852 69.8397 4.71483" fill="#403F41"/>
<path d="M77.8831 19.408L79.336 21.2589C79.6905 21.7326 80.4082 21.794 80.9289 21.3948C81.4541 21.0001 81.5897 20.294 81.2353 19.8203L79.7824 17.908C79.4279 17.4343 78.7146 17.3729 78.1894 17.772C77.6643 18.1668 77.5286 18.9343 77.8831 19.408Z" fill="#403F41"/>
<path d="M67.4852 2.46045C66.8244 2.46045 66.2905 2.99554 66.2905 3.65782V20.4604C66.2905 21.1227 66.8288 21.6578 67.4852 21.6578C68.1417 21.6578 68.6799 21.1227 68.6799 20.4604V3.65782C68.6799 2.99554 68.1417 2.46045 67.4852 2.46045Z" fill="#403F41"/>
<path d="M80.2374 2.46045C79.5766 2.46045 79.0383 2.99554 79.0383 3.65782V20.4604C79.0383 21.1227 79.5766 21.6578 80.2374 21.6578C80.8982 21.6578 81.4321 21.1227 81.4321 20.4604V3.65782C81.4321 2.99554 80.8982 2.46045 80.2374 2.46045Z" fill="#403F41"/>
<path d="M69.7521 8.53069L74.4434 14.8684C74.7935 15.3421 75.5068 15.4123 76.032 15.0263C76.5615 14.6359 76.7059 13.9342 76.3558 13.4561L71.6208 7.09209C71.2707 6.61402 70.5574 6.54385 70.0278 6.9342C69.4983 7.32016 69.4021 8.05262 69.7478 8.53069" fill="#403F41"/>
<path d="M55.2802 16.8115H59.8358C60.4309 16.8115 60.9123 16.272 60.9123 15.6097C60.9123 14.9474 60.4309 14.408 59.8358 14.408H55.2846C54.6894 14.408 54.208 14.943 54.208 15.6053C54.208 16.2676 54.6894 16.8071 55.2802 16.8071" fill="#403F41"/>
<path d="M26.2484 13.1667H31.0929C31.688 13.1667 32.1694 12.6272 32.1694 11.9693C32.1694 11.3071 31.688 10.7676 31.0929 10.7676H26.2528C25.6576 10.7676 25.1763 11.3027 25.1719 11.9649C25.1719 12.6272 25.6533 13.1667 26.2484 13.1667Z" fill="#403F41"/>
<path d="M38.8298 19.2281H38.0334H31.1627V4.83777H38.0334H39.4644C39.9676 4.83777 40.344 4.92988 40.7685 5.21935C41.4643 5.69742 41.8188 6.54392 41.8232 7.74128C41.8275 9.92111 41.1536 10.6711 40.7422 10.9913C40.5847 11.1141 40.2258 11.4036 40.2258 12.0351C40.2258 12.7939 40.7466 13.079 40.9785 13.193C41.123 13.2588 42.3964 13.6404 42.3964 15.8422C42.3964 19.0088 39.6701 19.2369 38.8342 19.2369M43.101 12.0308C43.6174 11.215 44.2519 9.52199 44.2519 7.73251C44.2519 3.99128 41.7313 2.40356 39.6219 2.40356H29.9593C29.2941 2.40356 28.7515 2.94742 28.7515 3.61848V20.4387C28.7515 21.1097 29.2897 21.6536 29.9593 21.6536H38.8298C42.9741 21.6536 44.8296 18.7501 44.8296 15.829C44.8296 13.6887 43.8756 12.7983 43.101 12.0264" fill="#403F41"/>
<path d="M92.3902 9.23672L92.6571 9.51304C93.0291 9.899 93.7074 9.84637 94.1669 9.399C94.6264 8.95164 94.692 8.27181 94.3201 7.89023L94.0575 7.61392C93.6811 7.22795 93.0072 7.28058 92.5477 7.73234C92.0882 8.17971 92.0182 8.85514 92.3945 9.24111" fill="#FF8300"/>
<path d="M99.4313 21.6404C99.0944 21.6404 98.7574 21.4956 98.5167 21.2193L92.2675 13.7895C91.8343 13.2851 91.8912 12.5176 92.3988 12.0877C92.9064 11.6535 93.6679 11.7106 94.1011 12.2193L100.346 19.6491C100.779 20.1535 100.722 20.9167 100.215 21.3509C99.9871 21.5483 99.707 21.6404 99.4313 21.6404Z" fill="#403F41"/>
<path d="M86.5391 2.40356C85.8739 2.40356 85.3313 2.94304 85.3313 3.6097V20.4299C85.3313 21.0965 85.8696 21.636 86.5391 21.636C87.2087 21.636 87.7426 21.0965 87.7426 20.4299V3.6097C87.7426 2.94304 87.2043 2.40356 86.5391 2.40356Z" fill="#403F41"/>
<path d="M96.0354 7.62283L99.2957 4.43423C99.7202 4.02195 99.6895 3.29826 99.23 2.82458C98.7705 2.3509 98.0485 2.29826 97.624 2.71493L94.3637 5.89914C93.9349 6.31142 93.9655 7.03511 94.4294 7.51318C94.8889 7.98686 95.6066 8.03511 96.0354 7.62283Z" fill="#403F41"/>
<path d="M92.3508 11.2237L89.0905 14.4123C88.666 14.829 87.9483 14.7807 87.4845 14.3071C87.025 13.8334 86.9899 13.1097 87.4188 12.693L90.6791 9.50443C91.1036 9.08776 91.8256 9.13601 92.2851 9.60969C92.749 10.0834 92.7796 10.8071 92.3552 11.2237" fill="#403F41"/>
<path d="M11.9777 17.6098C13.737 17.6098 16.1614 16.7501 16.494 14.9036C16.5158 14.7984 16.5377 14.6317 16.5334 14.5527C16.4502 14.1799 16.087 14.4299 15.9119 14.5089C15.6537 14.6229 13.6494 15.1492 11.9777 15.1492C10.306 15.1492 8.30173 14.6273 8.04354 14.5089C7.86849 14.4299 7.50527 14.1799 7.42212 14.5527C7.42212 14.6317 7.444 14.7984 7.4615 14.9036C7.7941 16.7457 10.2185 17.6054 11.9777 17.6098Z" fill="#FF8300"/>
<path d="M9.7196 10.6534V10.1315C9.7196 9.39462 9.03692 8.79813 8.18793 8.80251C7.34771 8.80251 6.66064 9.39901 6.66064 10.1315V10.6578C6.66064 11.3946 7.34333 11.9911 8.18793 11.9911C9.03254 11.9911 9.71523 11.3946 9.71523 10.6578" fill="#403F41"/>
<path d="M17.2948 10.6534V10.1315C17.2948 9.39462 16.6077 8.79813 15.7631 8.80251C14.9229 8.80251 14.2358 9.39901 14.2358 10.1315V10.6578C14.2358 11.3946 14.9185 11.9911 15.7631 11.9911C16.6077 11.9911 17.2904 11.3946 17.2904 10.6578" fill="#403F41"/>
<path d="M19.5615 3.15356C19.2158 3.15356 18.8788 3.28514 18.6469 3.5176C18.1392 4.02199 18.1392 4.84655 18.6381 5.35532C20.5374 7.27637 21.5264 9.92549 21.347 12.6272C21.1763 15.136 20.0429 17.4255 18.1524 19.079C16.4369 20.5746 14.2444 21.3992 11.9732 21.3992C11.7631 21.3992 11.5487 21.3904 11.3386 21.3772C7.79391 21.1272 4.73057 18.943 3.33457 15.6799C2.8882 14.6272 2.63875 13.5132 2.59062 12.3641C2.56436 11.6623 1.99545 11.1141 1.29526 11.1141H1.24275C0.533806 11.1492 -0.026347 11.7588 -8.98191e-05 12.4737C0.0568007 13.9387 0.376263 15.3641 0.95392 16.7062C2.73065 20.8685 6.62984 23.6492 11.1286 23.9694H11.168C11.4393 23.9913 11.7194 24.0001 11.9951 24.0001C14.879 24.0001 17.671 22.9474 19.8547 21.0351C22.266 18.9255 23.7145 16.0044 23.9289 12.8027C24.1609 9.3597 22.9049 5.97813 20.4761 3.52637C20.2442 3.28953 19.9072 3.15356 19.5571 3.15356" fill="#FF8300"/>
<path d="M11.6844 1.23249C11.6713 1.34653 11.6756 1.46495 11.6975 1.58337C11.7063 1.61846 11.7106 1.64916 11.7194 1.68425C11.8507 2.25004 12.3321 2.66671 12.9097 2.72372C14.03 2.83337 15.1197 3.14916 16.1394 3.65355C16.4632 3.81583 16.8308 3.84214 17.1809 3.72811C17.5266 3.61407 17.8023 3.36846 17.9642 3.0439C18.1043 2.75881 18.1436 2.42986 18.0693 2.12285C17.9774 1.72811 17.7148 1.39478 17.3472 1.21495C16.0299 0.557056 14.6252 0.149162 13.1723 0.00881089C12.8134 -0.0262768 12.459 0.0789863 12.1789 0.307056C11.8988 0.539513 11.7238 0.86846 11.6844 1.23249Z" fill="#403F41"/>
<path d="M4.92315 3.87707C4.98879 3.97356 5.06756 4.06128 5.15509 4.14023C5.18135 4.16216 5.2076 4.18409 5.23386 4.20163C5.69774 4.55251 6.32791 4.57444 6.80929 4.24988C7.74579 3.6183 8.78295 3.16655 9.8945 2.90777C10.249 2.82444 10.5509 2.60953 10.7435 2.30251C10.936 1.99549 10.9973 1.62707 10.9142 1.27619C10.8441 0.964791 10.6647 0.688476 10.4109 0.495493C10.0871 0.249879 9.67569 0.16216 9.27746 0.254265C7.84645 0.587598 6.50296 1.17093 5.29075 1.98672C4.98879 2.18848 4.78311 2.49549 4.71309 2.85076C4.64307 3.21041 4.71309 3.57444 4.91877 3.88146" fill="#403F41"/>
<path d="M1.38735 10.2324C1.49676 10.2675 1.61492 10.285 1.73307 10.285C1.76808 10.285 1.80309 10.285 1.83373 10.285C2.41138 10.2631 2.91465 9.87272 3.08094 9.31131C3.40478 8.22798 3.91679 7.21921 4.60823 6.31131C4.82704 6.02184 4.92332 5.66219 4.87518 5.30254C4.82704 4.94289 4.64324 4.61833 4.35441 4.39903C4.10059 4.20605 3.78988 4.10517 3.4748 4.11833C3.06781 4.13149 2.69146 4.32886 2.44639 4.65342C1.55365 5.82447 0.888469 7.13149 0.472731 8.535C0.367702 8.88149 0.407088 9.24991 0.577759 9.57008C0.752807 9.89026 1.03726 10.1271 1.39173 10.2324" fill="#403F41"/>
<path d="M63.6254 19.9782L56.059 3.17554C55.8708 2.7194 55.4244 2.42554 54.9343 2.42554C54.9343 2.42554 54.9343 2.42554 54.9299 2.42554C54.9256 2.42554 54.9256 2.42554 54.9212 2.42554C54.4267 2.42554 53.9847 2.72378 53.7965 3.17554L46.2301 19.9782C45.9719 20.601 46.2695 21.3115 46.8909 21.5659C47.044 21.6273 47.1972 21.658 47.3504 21.658C47.8318 21.658 48.2825 21.3729 48.4794 20.9036L54.9256 6.32466L61.3761 20.9036C61.573 21.3729 62.0237 21.658 62.5008 21.658C62.6539 21.658 62.8115 21.6273 62.9602 21.5659C63.586 21.3115 63.8793 20.601 63.6211 19.9782" fill="#403F41"/>
<path d="M170.812 14.6271C170.812 14.2894 171.118 14.1008 171.52 14.1008C171.923 14.1008 172.194 14.2894 172.194 14.6271V17.9824C172.194 18.3245 171.923 18.5131 171.52 18.5131C171.118 18.5131 170.812 18.3245 170.812 17.9824V14.6271Z" fill="#403F41"/>
<path d="M176.317 14.6271C176.317 14.2894 176.623 14.1008 177.026 14.1008C177.428 14.1008 177.7 14.2894 177.7 14.6271V17.9824C177.7 18.3245 177.433 18.5131 177.026 18.5131C176.619 18.5131 176.317 18.3245 176.317 17.9824V14.6271Z" fill="#403F41"/>
<path d="M157.298 10.886H149.539V9.66669C149.539 9.23248 149.732 9.12283 150.156 9.12283H156.698C157.105 9.12283 157.298 9.23248 157.298 9.66669V10.886ZM157.298 14.0176H149.539V12.1886H157.298V14.0176ZM157.298 16.7149C157.298 17.1272 157.105 17.2588 156.698 17.2588H150.156C149.732 17.2588 149.539 17.1272 149.539 16.7149V15.3246H157.298V16.7149ZM157.062 7.77195H153.25C153.25 7.77195 153.25 7.76757 153.254 7.76318H151.613C151.613 7.76318 151.613 7.76757 151.609 7.77195H149.727C148.554 7.77195 148.003 8.25441 148.003 9.40353V17C148.003 18.1755 148.532 18.6535 149.727 18.6535H157.057C158.269 18.6535 158.821 18.1755 158.821 17V9.40353C158.821 8.25003 158.269 7.77195 157.057 7.77195" fill="#403F41"/>
<path d="M144.392 13.1053V18.1843C144.231 18.3641 144.056 18.5483 143.872 18.7281H146.34C146.217 18.5527 146.099 18.3685 145.985 18.158V12.7545C145.985 11.6229 145.517 11.0352 144.436 11.0352H143.789V12.5834H143.885C144.266 12.5834 144.397 12.6931 144.397 13.1053" fill="#403F41"/>
<path d="M180.619 11.2368V8.58326H186.881V10.671C186.881 11.1052 186.649 11.2368 186.176 11.2368H180.619ZM180.619 5.03502C180.619 4.57888 180.855 4.46923 181.301 4.46923H186.176C186.649 4.46923 186.881 4.57888 186.881 5.03502V7.12712H180.619V5.03502ZM186.54 12.6754C187.861 12.6754 188.434 12.1973 188.434 10.9561V4.66221C188.434 3.44291 187.861 2.96484 186.561 2.96484H180.942C179.647 2.96484 179.074 3.44291 179.074 4.66221V20.9254C179.074 20.9254 179.157 21.842 180.247 21.4561L180.623 19.8157V12.671H186.54V12.6754Z" fill="#403F41"/>
<path d="M216.075 4.31585H207.48C207.055 4.31585 206.714 3.97374 206.714 3.54831C206.714 3.12287 207.06 2.78076 207.48 2.78076H216.075C216.499 2.78076 216.84 3.12287 216.84 3.54831C216.84 3.97374 216.495 4.31585 216.075 4.31585Z" fill="#403F41"/>
<path d="M199.751 7.01745C199.519 7.01745 199.292 6.91218 199.143 6.71481C198.885 6.37709 198.951 5.89464 199.283 5.63587L203.3 2.55253C203.637 2.29376 204.119 2.35955 204.377 2.69727C204.635 3.03499 204.57 3.51745 204.233 3.77622L200.215 6.85955C200.075 6.96481 199.913 7.01745 199.751 7.01745Z" fill="#403F41"/>
<path d="M199.751 12.4342C199.519 12.4342 199.292 12.3289 199.143 12.1316C198.885 11.7938 198.951 11.3114 199.283 11.0526L203.3 7.96928C203.637 7.71051 204.119 7.7763 204.377 8.11402C204.635 8.45174 204.57 8.93419 204.233 9.19296L200.215 12.2763C200.075 12.3816 199.913 12.4342 199.751 12.4342Z" fill="#403F41"/>
<path d="M184.877 17.3508C184.64 17.3508 184.408 17.2456 184.259 17.0394C184.006 16.6973 184.076 16.2149 184.417 15.9649L187.76 13.4649C188.102 13.2105 188.583 13.2807 188.837 13.6228C189.086 13.9649 189.021 14.4429 188.679 14.6973L185.336 17.1929C185.2 17.2982 185.038 17.3465 184.881 17.3465" fill="#403F41"/>
<path d="M217.234 10.0219H206.324C205.9 10.0219 205.554 9.67979 205.554 9.25435C205.554 8.82891 205.9 8.48242 206.324 8.48242H217.234C217.659 8.48242 218.004 8.82891 218.004 9.25435C218.004 9.67979 217.659 10.0219 217.234 10.0219Z" fill="#403F41"/>
<path d="M212.687 9.35083V19.3026C212.687 19.7719 212.582 20.0087 212.123 20.0087H210.832V21.5614H212.49C213.707 21.5614 214.184 20.9868 214.184 19.6885V9.35083H212.683H212.687Z" fill="#403F41"/>
<path d="M210.784 21.5614H208.289C207.865 21.5614 207.519 21.2193 207.519 20.7939C207.519 20.3685 207.86 20.022 208.289 20.022H210.784C211.208 20.022 211.55 20.3685 211.55 20.7939C211.55 21.2193 211.204 21.5614 210.784 21.5614Z" fill="#403F41"/>
<path d="M202.338 21.614C201.913 21.614 201.567 21.2719 201.567 20.8464V9.73677C201.567 9.31134 201.913 8.96484 202.338 8.96484C202.762 8.96484 203.103 9.31134 203.103 9.73677V20.8464C203.103 21.2719 202.762 21.614 202.338 21.614Z" fill="#403F41"/>
<path d="M177.748 20.7455L170.93 21.6051C170.531 21.6534 170.173 21.3727 170.12 20.9736C170.068 20.5744 170.348 20.2148 170.75 20.1622L177.568 19.3025C177.962 19.2543 178.325 19.535 178.378 19.9341C178.426 20.3332 178.146 20.6929 177.748 20.7455Z" fill="#403F41"/>
<path d="M177.109 12.7237H171.393C170.995 12.7237 170.671 12.3992 170.671 11.9957C170.671 11.5921 170.995 11.272 171.393 11.272H177.109C177.507 11.272 177.831 11.5965 177.831 11.9957C177.831 12.3948 177.507 12.7237 177.109 12.7237Z" fill="#403F41"/>
<path d="M177.109 8.58335H171.393C170.995 8.58335 170.671 8.25878 170.671 7.85966C170.671 7.46054 170.995 7.13159 171.393 7.13159H177.109C177.507 7.13159 177.831 7.45615 177.831 7.85966C177.831 8.26317 177.507 8.58335 177.109 8.58335Z" fill="#403F41"/>
<path d="M174.247 20.7456C173.849 20.7456 173.521 20.421 173.521 20.0219V8.58329C173.521 8.17979 173.844 7.85522 174.247 7.85522C174.65 7.85522 174.969 8.17979 174.969 8.58329V20.0219C174.969 20.421 174.645 20.75 174.247 20.75" fill="#403F41"/>
<path d="M179.931 21.5089C179.603 21.5089 179.301 21.3027 179.201 20.9694C179.074 20.5659 179.297 20.1317 179.704 20.0045L183.524 18.8027C183.927 18.6755 184.36 18.8992 184.487 19.3071C184.614 19.7106 184.391 20.1448 183.984 20.272L180.163 21.4738C180.089 21.5001 180.01 21.5089 179.936 21.5089" fill="#403F41"/>
<path d="M188.614 21.6141C188.461 21.6141 188.303 21.5702 188.168 21.4693C183.363 18 182.667 12.5614 182.64 12.329C182.588 11.9079 182.89 11.5264 183.31 11.4737C183.735 11.4211 184.111 11.7237 184.163 12.1448C184.172 12.193 184.82 17.1535 189.065 20.2193C189.41 20.4693 189.485 20.9474 189.24 21.2939C189.091 21.5044 188.855 21.6141 188.614 21.6141Z" fill="#403F41"/>
<path d="M170.531 7.07026C170.396 7.07026 170.26 7.03517 170.138 6.96061C169.774 6.74131 169.661 6.26762 169.879 5.90359L171.455 3.28955C171.595 3.06148 171.844 2.91675 172.111 2.91675H176.05C176.312 2.91675 176.557 3.05271 176.698 3.2764L178.352 5.89043C178.579 6.25008 178.47 6.72377 178.115 6.95184C177.757 7.17991 177.284 7.07464 177.056 6.71499L175.63 4.45622H172.545L171.192 6.69745C171.048 6.93868 170.794 7.07026 170.536 7.07026" fill="#403F41"/>
<path d="M129.973 5.44727H114.556C114.109 5.44727 113.746 5.08323 113.746 4.63587C113.746 4.1885 114.109 3.82446 114.556 3.82446H129.973C130.419 3.82446 130.783 4.1885 130.783 4.63587C130.783 5.08323 130.419 5.44727 129.973 5.44727Z" fill="#403F41"/>
<path d="M129.023 13.0176H115.505C115.059 13.0176 114.696 12.6535 114.696 12.2062C114.696 11.7588 115.059 11.3948 115.505 11.3948H129.023C129.47 11.3948 129.833 11.7588 129.833 12.2062C129.833 12.6579 129.47 13.0176 129.023 13.0176Z" fill="#403F41"/>
<path d="M131.102 21.2368H113.435C112.989 21.2368 112.626 20.8728 112.626 20.4254C112.626 19.978 112.989 19.614 113.435 19.614H131.102C131.548 19.614 131.912 19.978 131.912 20.4254C131.912 20.8728 131.548 21.2368 131.102 21.2368Z" fill="#403F41"/>
<path d="M122.266 21.2367C121.82 21.2367 121.457 20.8727 121.457 20.4253V4.63587C121.457 4.1885 121.82 3.82446 122.266 3.82446C122.713 3.82446 123.076 4.1885 123.076 4.63587V20.4253C123.076 20.8727 122.713 21.2367 122.266 21.2367Z" fill="#403F41"/>
<path d="M151.32 5.99113C151.071 5.99113 150.826 5.85955 150.69 5.62709L149.46 3.47797C149.263 3.13148 149.381 2.6885 149.727 2.48674C150.077 2.28937 150.519 2.40779 150.716 2.75429L151.946 4.90779C152.143 5.25429 152.025 5.70165 151.679 5.89902C151.565 5.96481 151.443 5.99551 151.32 5.99551" fill="#403F41"/>
<path d="M155.517 5.99111C155.394 5.99111 155.272 5.96041 155.158 5.89462C154.812 5.69726 154.69 5.24989 154.891 4.9034L156.121 2.74989C156.318 2.4034 156.764 2.28059 157.11 2.48234C157.456 2.6841 157.574 3.12708 157.377 3.47357L156.147 5.62269C156.011 5.85515 155.771 5.98673 155.517 5.98673" fill="#403F41"/>
<path d="M159.429 6.3773H147.408C147.005 6.3773 146.686 6.05274 146.686 5.65362C146.686 5.25449 147.009 4.92993 147.408 4.92993H159.429C159.827 4.92993 160.151 5.25449 160.151 5.65362C160.151 6.05712 159.827 6.3773 159.429 6.3773Z" fill="#403F41"/>
<path d="M153.421 8.85976C153.022 8.85976 152.698 8.53519 152.698 8.13607V5.65362C152.698 5.25449 153.022 4.92993 153.421 4.92993C153.819 4.92993 154.143 5.25449 154.143 5.65362V8.13607C154.143 8.53519 153.819 8.85976 153.421 8.85976Z" fill="#403F41"/>
<path d="M145.141 7.95171C144.909 7.95171 144.677 7.84645 144.528 7.64908C142.826 5.3947 142.489 5.06136 142.06 4.64031L141.99 4.57452C141.688 4.27628 141.688 3.78943 141.986 3.4868C142.283 3.18417 142.773 3.18417 143.071 3.48242L143.137 3.54821C143.605 4.01312 143.977 4.38154 145.749 6.72364C146.003 7.06136 145.937 7.54382 145.6 7.80259C145.46 7.90786 145.298 7.96049 145.136 7.96049" fill="#403F41"/>
<path d="M144.804 12.579H141.907C141.482 12.579 141.141 12.2369 141.141 11.8071C141.141 11.3773 141.487 11.0396 141.907 11.0396H144.804C145.228 11.0396 145.57 11.3817 145.57 11.8071C145.57 12.2325 145.224 12.579 144.804 12.579Z" fill="#403F41"/>
<path d="M153.346 21.614C151.648 21.614 150.029 21.5789 148.996 21.478C146.813 21.2675 145.57 20.035 144.948 19.1359L142.655 21.2719C142.344 21.5614 141.859 21.5438 141.57 21.2368C141.281 20.9254 141.299 20.4385 141.609 20.1491L144.616 17.3421C144.804 17.1666 145.062 17.0964 145.316 17.1535C145.565 17.2149 145.771 17.3947 145.859 17.6359C145.889 17.7192 146.69 19.7061 149.149 19.9473C152.055 20.228 159.77 19.9473 159.854 19.9473C160.269 19.9298 160.633 20.2631 160.646 20.6885C160.663 21.114 160.331 21.4692 159.906 21.4824C159.683 21.4912 156.606 21.614 153.346 21.614Z" fill="#403F41"/>
</g>
<defs>
<clipPath id="clip0_600_1183">
<rect width="218" height="24" fill="white"/>
</clipPath>
</defs>
</svg>
