<svg width="169" height="169" viewBox="0 0 169 169" fill="none" xmlns="http://www.w3.org/2000/svg">
<path d="M158.612 80.0001C158.612 121.176 125.232 154.556 84.0562 154.556C42.88 154.556 9.5 121.176 9.5 80.0001C9.5 38.8238 42.88 5.44385 84.0562 5.44385C125.232 5.44385 158.612 38.8238 158.612 80.0001Z" fill="url(#paint0_linear_600_1092)"/>
<path d="M90.2698 10.9438C131.17 10.9441 164.325 44.1005 164.325 85.0005C164.325 125.9 131.17 159.056 90.2698 159.056C49.3698 159.056 16.2134 125.9 16.2131 85.0005C16.2131 44.1004 49.3697 10.9438 90.2698 10.9438Z" stroke="#FF8300"/>
<path d="M135.536 146.692C126.364 148.359 125.105 149.71 123.553 159.563C122.001 149.712 120.743 148.359 111.571 146.692C120.743 145.024 122.001 143.672 123.553 133.82C125.105 143.672 126.364 145.024 135.536 146.692Z" fill="#FF8300"/>
<path d="M44.1154 36.1796C32.2264 38.3644 30.5947 40.1353 28.5828 53.0448C26.5709 40.1366 24.9392 38.3644 13.0503 36.1796C24.9392 33.9949 26.5709 32.2227 28.5828 19.3145C30.5947 32.2227 32.2264 33.9949 44.1154 36.1796Z" fill="#FF8300"/>
<g clip-path="url(#clip0_600_1092)">
<path d="M80.0989 39.6686L43.1693 44.1468C41.2848 44.3753 39.9421 46.0862 40.1703 47.9681L49.3658 123.8C49.594 125.681 51.3067 127.022 53.1912 126.793L90.1208 122.315C92.0053 122.087 93.348 120.376 93.1198 118.494L83.9243 42.6624C83.6961 40.7804 81.9834 39.4401 80.0989 39.6686Z" fill="#FF8300"/>
<path d="M74.4835 120.923L48.2609 124.102C46.3826 124.33 44.6625 122.982 44.4354 121.109L35.2399 45.2772C35.0127 43.4039 36.3631 41.6833 38.239 41.4558L75.1683 36.9777C77.0467 36.7499 78.7668 38.0982 78.9939 39.9715L86.4727 101.646" stroke="#1B2C5A" stroke-width="0.55914" stroke-miterlimit="10"/>
<path d="M62.9469 43.0638L51.5609 44.4445C50.8566 44.5299 50.356 45.1795 50.4429 45.8955C50.5297 46.6115 51.171 47.1227 51.8753 47.0373L63.2613 45.6566C63.9656 45.5712 64.4662 44.9216 64.3793 44.2056C64.2925 43.4896 63.6512 42.9784 62.9469 43.0638Z" fill="#1B2C5A"/>
<path d="M61.1297 75.6205C66.8475 74.9271 70.9206 69.7299 70.2273 64.0121C69.5339 58.2943 64.3367 54.2211 58.6189 54.9145C52.9011 55.6078 48.8279 60.8051 49.5213 66.5229C50.2146 72.2407 55.4119 76.3138 61.1297 75.6205Z" stroke="#1B2C5A" stroke-width="0.55914" stroke-miterlimit="10"/>
<path d="M53.9362 66.1459L59.6871 70.2553L65.5983 60.2563" stroke="#1B2C5A" stroke-width="0.55914" stroke-miterlimit="10"/>
<path d="M84.4338 117.223C84.4338 109.524 92.4336 103.286 102.302 103.286C112.17 103.286 120.17 109.527 120.17 117.223H84.4365H84.4338Z" fill="#FF8300"/>
<path d="M118.086 122.94H85.4457C84.4921 122.94 83.719 123.733 83.719 124.71V127.961C83.719 128.938 84.4921 129.73 85.4457 129.73H118.086C119.039 129.73 119.812 128.938 119.812 127.961V124.71C119.812 123.733 119.039 122.94 118.086 122.94Z" fill="#FF8300"/>
<path d="M107.386 102.868L106.59 95.0664H133.75L129.839 133.304H110.501" fill="#FF8300"/>
<path d="M81.2175 114.721C81.2175 107.023 89.2973 100.784 99.2643 100.784C109.231 100.784 117.311 107.025 117.311 114.721H81.2202H81.2175Z" stroke="#1B2C5A" stroke-width="0.55914" stroke-miterlimit="10"/>
<path d="M80.8601 116.508C81.7195 116.508 81.7195 118.295 82.5788 118.295C83.4382 118.295 83.4382 116.508 84.2949 116.508C85.1517 116.508 85.1543 118.295 86.0137 118.295C86.873 118.295 86.873 116.508 87.7324 116.508C88.5918 116.508 88.5918 118.295 89.4512 118.295C90.3105 118.295 90.3105 116.508 91.1699 116.508C92.0293 116.508 92.0293 118.295 92.8886 118.295C93.748 118.295 93.748 116.508 94.6074 116.508C95.4667 116.508 95.4667 118.295 96.3261 118.295C97.1855 118.295 97.1855 116.508 98.0448 116.508C98.9042 116.508 98.9042 118.295 99.7636 118.295C100.623 118.295 100.623 116.508 101.48 116.508C102.336 116.508 102.339 118.295 103.198 118.295C104.058 118.295 104.058 116.508 104.917 116.508C105.777 116.508 105.777 118.295 106.636 118.295C107.495 118.295 107.495 116.508 108.355 116.508C109.214 116.508 109.214 118.295 110.073 118.295C110.933 118.295 110.933 116.508 111.792 116.508C112.651 116.508 112.651 118.295 113.511 118.295C114.37 118.295 114.37 116.508 115.232 116.508C116.094 116.508 116.092 118.295 116.954 118.295" stroke="#1B2C5A" stroke-width="0.55914" stroke-linecap="round" stroke-linejoin="round"/>
<path d="M104.887 99.6499L104.089 91.8501H131.248L127.335 130.088H107.999" stroke="#1B2C5A" stroke-width="0.55914" stroke-miterlimit="10"/>
<path d="M117.668 91.8501V80.4146" stroke="#1B2C5A" stroke-width="2.23656" stroke-miterlimit="10"/>
<path d="M114.887 120.439H82.5697C81.6255 120.439 80.8601 121.19 80.8601 122.115V125.195C80.8601 126.121 81.6255 126.871 82.5697 126.871H114.887C115.831 126.871 116.596 126.121 116.596 125.195V122.115C116.596 121.19 115.831 120.439 114.887 120.439Z" stroke="#1B2C5A" stroke-width="0.55914" stroke-miterlimit="10"/>
<path d="M91.2236 107.574C91.4209 107.574 91.5809 107.414 91.5809 107.217C91.5809 107.019 91.4209 106.859 91.2236 106.859C91.0262 106.859 90.8662 107.019 90.8662 107.217C90.8662 107.414 91.0262 107.574 91.2236 107.574Z" fill="#1B2C5A"/>
<path d="M98.9069 110.79C99.2029 110.79 99.4429 110.55 99.4429 110.254C99.4429 109.958 99.2029 109.718 98.9069 109.718C98.6108 109.718 98.3708 109.958 98.3708 110.254C98.3708 110.55 98.6108 110.79 98.9069 110.79Z" fill="#1B2C5A"/>
<path d="M86.3993 111.148C86.6954 111.148 86.9354 110.988 86.9354 110.79C86.9354 110.593 86.6954 110.433 86.3993 110.433C86.1033 110.433 85.8633 110.593 85.8633 110.79C85.8633 110.988 86.1033 111.148 86.3993 111.148Z" fill="#1B2C5A"/>
<path d="M104.625 106.502C104.921 106.502 105.161 106.342 105.161 106.144C105.161 105.947 104.921 105.787 104.625 105.787C104.329 105.787 104.089 105.947 104.089 106.144C104.089 106.342 104.329 106.502 104.625 106.502Z" fill="#1B2C5A"/>
<path d="M111.236 111.148C111.433 111.148 111.593 110.908 111.593 110.612C111.593 110.316 111.433 110.076 111.236 110.076C111.038 110.076 110.878 110.316 110.878 110.612C110.878 110.908 111.038 111.148 111.236 111.148Z" fill="#1B2C5A"/>
</g>
<defs>
<linearGradient id="paint0_linear_600_1092" x1="9.5" y1="80.0001" x2="158.612" y2="80.0001" gradientUnits="userSpaceOnUse">
<stop stop-color="#FFECD2"/>
<stop offset="1" stop-color="#FCB69F"/>
</linearGradient>
<clipPath id="clip0_600_1092">
<rect width="107.355" height="104" fill="white" transform="translate(30.5 33)"/>
</clipPath>
</defs>
</svg>
