<svg width="169" height="169" viewBox="0 0 169 169" fill="none" xmlns="http://www.w3.org/2000/svg">
<path d="M159.112 80.0001C159.112 121.176 125.732 154.556 84.5562 154.556C43.38 154.556 10 121.176 10 80.0001C10 38.8238 43.38 5.44385 84.5562 5.44385C125.732 5.44385 159.112 38.8238 159.112 80.0001Z" fill="url(#paint0_linear_600_1136)"/>
<path d="M90.7695 10.9438C131.669 10.9441 164.825 44.1005 164.825 85.0005C164.825 125.9 131.669 159.056 90.7695 159.056C49.8696 159.056 16.7131 125.9 16.7129 85.0005C16.7129 44.1004 49.8694 10.9438 90.7695 10.9438Z" stroke="#FF8300"/>
<path d="M136.035 146.692C126.864 148.359 125.605 149.71 124.053 159.563C122.501 149.712 121.242 148.359 112.071 146.692C121.242 145.024 122.501 143.672 124.053 133.82C125.605 143.672 126.864 145.024 136.035 146.692Z" fill="#FF8300"/>
<path d="M44.6154 36.1796C32.7264 38.3644 31.0947 40.1353 29.0828 53.0448C27.0709 40.1366 25.4392 38.3644 13.5503 36.1796C25.4392 33.9949 27.0709 32.2227 29.0828 19.3145C31.0947 32.2227 32.7264 33.9949 44.6154 36.1796Z" fill="#FF8300"/>
<g clip-path="url(#clip0_600_1136)">
<path d="M122 66.5439H52.4419V109H122V66.5439Z" fill="#FF8300"/>
<path d="M86.1872 76.4675C85.1855 75.4382 84.3471 74.849 82.7345 74.849C80.8945 74.849 79.6725 76.1197 79.6725 77.8375C79.6725 82.3876 87.4375 80.9182 87.4375 87.0371C87.4375 89.6068 85.7254 91.2678 83.2744 91.5376V94.2279H82.1022V91.5376C80.2906 91.3885 78.5998 90.4586 77.5483 89.4577L78.2801 88.4568C79.3315 89.408 80.7808 90.3379 82.5924 90.3379C84.8231 90.3379 86.0238 89.0389 86.0238 87.1294C86.0238 81.9901 78.2375 83.3601 78.2375 77.9014C78.2375 75.5731 79.8572 73.8907 82.1093 73.621V70.9307H83.2815V73.621C85.0434 73.7701 86.0948 74.5722 87.0042 75.5802L86.1943 76.4604L86.1872 76.4675Z" fill="#1B2C5A"/>
<path d="M116.913 61.355H47.355V103.811H116.913V61.355Z" stroke="#1B2C5A" stroke-miterlimit="10"/>
<path d="M54.623 72.5211V92.4394C57.9123 92.4394 60.5764 95.1014 60.5764 98.388C60.5764 98.4519 60.5693 98.5228 60.5693 98.5867H106.598C106.598 98.5228 106.591 98.4519 106.591 98.388C106.591 95.1014 109.255 92.4394 112.544 92.4394C112.559 92.4394 112.58 92.4394 112.594 92.4394V72.514C112.594 72.514 112.559 72.514 112.544 72.514C109.255 72.514 106.591 69.852 106.591 66.5654H60.5764C60.5764 69.852 57.9123 72.514 54.623 72.514V72.5211Z" stroke="#1B2C5A" stroke-miterlimit="10"/>
<path d="M60.7822 82.5864H68.7603" stroke="#1B2C5A" stroke-miterlimit="10" stroke-linecap="round"/>
<path d="M95.1953 82.5864H103.173" stroke="#1B2C5A" stroke-miterlimit="10" stroke-linecap="round"/>
</g>
<defs>
<linearGradient id="paint0_linear_600_1136" x1="10" y1="80.0001" x2="159.112" y2="80.0001" gradientUnits="userSpaceOnUse">
<stop stop-color="#FFECD2"/>
<stop offset="1" stop-color="#FCB69F"/>
</linearGradient>
<clipPath id="clip0_600_1136">
<rect width="75" height="48" fill="white" transform="translate(47 61)"/>
</clipPath>
</defs>
</svg>
