<svg width="213" height="216" viewBox="0 0 213 216" fill="none" xmlns="http://www.w3.org/2000/svg">
<path d="M203.865 101.933C203.865 158.228 158.228 203.865 101.933 203.865C45.6368 203.865 0 158.228 0 101.933C0 45.6368 45.6368 0 101.933 0C158.228 0 203.865 45.6368 203.865 101.933Z" fill="url(#paint0_linear_600_1010)"/>
<path d="M110.427 6.67383C166.388 6.67385 211.753 52.0393 211.753 108C211.753 163.961 166.388 209.326 110.427 209.326C54.4663 209.326 9.10085 163.961 9.10083 108C9.10083 52.0393 54.4663 6.67383 110.427 6.67383Z" stroke="#FF8300" stroke-width="1.21348"/>
<path d="M172.315 192.338C159.775 194.617 158.054 196.465 155.933 209.934C153.811 196.466 152.09 194.617 139.551 192.338C152.09 190.058 153.811 188.209 155.933 174.742C158.054 188.209 159.775 190.058 172.315 192.338Z" fill="#FF8300"/>
<path d="M47.3259 41.2583C31.0715 44.2451 28.8406 46.666 26.09 64.3145C23.3393 46.6678 21.1084 44.2451 4.854 41.2583C21.1084 38.2716 23.3393 35.8488 26.09 18.2021C28.8406 35.8488 31.0715 38.2716 47.3259 41.2583Z" fill="#FF8300"/>
<g clip-path="url(#clip0_600_1010)">
<path d="M95.6756 147.435H54.604C50.0956 147.435 46.4128 143.757 46.4128 139.254V80.5932C46.4128 76.0903 50.0956 72.4121 54.604 72.4121H146.994C151.503 72.4121 155.186 76.0903 155.186 80.5932V89.9453" stroke="#1B2C5A" stroke-linecap="round" stroke-linejoin="round"/>
<path d="M138.869 131.6C138.869 130.183 139.244 128.932 139.995 127.857C140.745 126.783 141.793 126.249 143.145 126.249C144.068 126.249 144.803 126.544 145.35 127.141C145.897 127.738 146.179 128.566 146.179 129.625C146.179 130.501 145.991 131.385 145.616 132.269C145.241 133.153 144.725 133.798 144.076 134.212C143.427 134.626 142.7 134.833 141.894 134.833C140.988 134.833 140.26 134.546 139.698 133.965C139.135 133.384 138.861 132.595 138.861 131.6H138.869ZM142.145 143.568H139.619L152.996 126.249H155.513L142.152 143.568H142.145ZM141.175 131.855C141.175 132.237 141.253 132.508 141.418 132.683C141.582 132.858 141.801 132.946 142.074 132.946C142.598 132.946 143.036 132.54 143.396 131.735C143.747 130.931 143.927 130.079 143.927 129.179C143.927 128.853 143.841 128.598 143.677 128.415C143.513 128.232 143.286 128.144 143.02 128.144C142.715 128.144 142.442 128.272 142.192 128.526C141.949 128.781 141.715 129.283 141.504 130.031C141.292 130.78 141.183 131.385 141.183 131.855H141.175ZM148.892 140.311C148.892 138.894 149.267 137.644 150.017 136.569C150.768 135.494 151.823 134.952 153.168 134.952C154.09 134.952 154.825 135.247 155.373 135.844C155.92 136.441 156.201 137.269 156.201 138.328C156.201 139.204 156.014 140.088 155.638 140.972C155.263 141.856 154.747 142.509 154.098 142.915C153.449 143.321 152.722 143.528 151.917 143.528C151.01 143.528 150.283 143.241 149.72 142.66C149.157 142.079 148.884 141.298 148.884 140.311H148.892ZM151.19 140.558C151.19 140.94 151.268 141.211 151.432 141.386C151.597 141.561 151.815 141.649 152.097 141.649C152.621 141.649 153.058 141.251 153.418 140.446C153.77 139.642 153.95 138.79 153.95 137.89C153.95 137.556 153.864 137.301 153.7 137.118C153.535 136.935 153.309 136.847 153.043 136.847C152.738 136.847 152.464 136.975 152.214 137.23C151.972 137.484 151.737 137.986 151.518 138.734C151.299 139.483 151.19 140.088 151.19 140.558Z" fill="#FF8300"/>
<path d="M117.4 120.499L118.901 113.488C125.763 110.525 131.076 107.087 134.832 103.157H139.687L131.108 143.568H123.082L128.997 115.73C127.328 116.791 125.41 117.758 123.235 118.637C121.06 119.516 119.11 120.134 117.392 120.499H117.4Z" fill="#FF8300"/>
<path d="M100.878 122.95C100.878 104.271 116.1 89.1372 134.869 89.1372C148.878 89.1372 160.907 97.5669 166.11 109.604" stroke="#1B2C5A" stroke-miterlimit="10"/>
<path d="M168.272 118.827C168.477 120.353 168.587 121.903 168.587 123.485C168.587 142.324 153.375 157.588 134.617 157.588C119.774 157.588 107.154 148.034 102.529 134.715" stroke="#1B2C5A" stroke-miterlimit="10"/>
<path d="M166.11 97.3843V109.755H153.724" stroke="#1B2C5A" stroke-linecap="round" stroke-linejoin="round"/>
<path d="M101.704 146.867V134.496H114.915" stroke="#1B2C5A" stroke-linecap="round" stroke-linejoin="round"/>
<path d="M135.771 102.008L127.715 141.418H121.007L126.58 114.181L126.822 112.998L125.814 113.663C124.237 114.705 122.418 115.657 120.348 116.526C118.593 117.263 116.999 117.81 115.571 118.177L116.806 112.186C123.252 109.269 128.303 105.887 131.926 102.008H135.771Z" stroke="#1B2C5A" stroke-miterlimit="10"/>
<path d="M136.392 130.775C136.392 129.358 136.767 128.108 137.518 127.033C138.268 125.958 139.316 125.424 140.668 125.424C141.591 125.424 142.326 125.719 142.873 126.316C143.42 126.913 143.702 127.741 143.702 128.8C143.702 129.676 143.514 130.56 143.139 131.444C142.763 132.328 142.248 132.973 141.599 133.387C140.95 133.801 140.223 134.008 139.417 134.008C138.511 134.008 137.783 133.721 137.221 133.14C136.658 132.559 136.384 131.771 136.384 130.775H136.392ZM139.668 142.743H137.142L150.519 125.424H153.036L139.675 142.743H139.668ZM138.706 131.03C138.706 131.412 138.784 131.683 138.948 131.858C139.112 132.033 139.331 132.121 139.605 132.121C140.129 132.121 140.567 131.715 140.926 130.911C141.278 130.106 141.458 129.254 141.458 128.355C141.458 128.028 141.372 127.773 141.208 127.59C141.044 127.407 140.817 127.319 140.551 127.319C140.246 127.319 139.972 127.447 139.722 127.702C139.48 127.956 139.245 128.458 139.034 129.207C138.823 129.955 138.714 130.56 138.714 131.03H138.706ZM146.414 139.486C146.414 138.069 146.79 136.819 147.54 135.744C148.291 134.669 149.346 134.127 150.691 134.127C151.613 134.127 152.348 134.422 152.896 135.019C153.443 135.617 153.724 136.445 153.724 137.504C153.724 138.38 153.537 139.263 153.161 140.147C152.786 141.031 152.27 141.684 151.621 142.09C150.972 142.496 150.245 142.703 149.44 142.703C148.533 142.703 147.806 142.417 147.243 141.835C146.68 141.254 146.407 140.474 146.407 139.486H146.414ZM148.713 139.733C148.713 140.115 148.791 140.386 148.955 140.561C149.119 140.736 149.338 140.824 149.62 140.824C150.144 140.824 150.581 140.426 150.941 139.622C151.293 138.817 151.473 137.965 151.473 137.066C151.473 136.731 151.387 136.476 151.223 136.293C151.058 136.11 150.832 136.023 150.566 136.023C150.261 136.023 149.987 136.15 149.737 136.405C149.495 136.66 149.26 137.161 149.041 137.91C148.822 138.658 148.713 139.263 148.713 139.733Z" stroke="#1B2C5A" stroke-miterlimit="10"/>
<path d="M46.7761 92.626H108.235" stroke="#1B2C5A" stroke-linecap="round" stroke-linejoin="round"/>
<path d="M46.7761 106.151H97.9958" stroke="#1B2C5A" stroke-linecap="round" stroke-linejoin="round"/>
</g>
<defs>
<linearGradient id="paint0_linear_600_1010" x1="0" y1="101.933" x2="203.865" y2="101.933" gradientUnits="userSpaceOnUse">
<stop stop-color="#FFECD2"/>
<stop offset="1" stop-color="#FCB69F"/>
</linearGradient>
<clipPath id="clip0_600_1010">
<rect width="123" height="86" fill="white" transform="translate(46 72)"/>
</clipPath>
</defs>
</svg>
