<svg width="169" height="169" viewBox="0 0 169 169" fill="none" xmlns="http://www.w3.org/2000/svg">
<path d="M158.612 80.0001C158.612 121.176 125.232 154.556 84.0562 154.556C42.88 154.556 9.5 121.176 9.5 80.0001C9.5 38.8238 42.88 5.44385 84.0562 5.44385C125.232 5.44385 158.612 38.8238 158.612 80.0001Z" fill="url(#paint0_linear_600_1119)"/>
<path d="M90.2698 10.9438C131.17 10.9441 164.325 44.1005 164.325 85.0005C164.325 125.9 131.17 159.056 90.2698 159.056C49.3698 159.056 16.2134 125.9 16.2131 85.0005C16.2131 44.1004 49.3697 10.9438 90.2698 10.9438Z" stroke="#FF8300"/>
<path d="M135.536 146.692C126.364 148.359 125.105 149.71 123.553 159.563C122.001 149.712 120.743 148.359 111.571 146.692C120.743 145.024 122.001 143.672 123.553 133.82C125.105 143.672 126.364 145.024 135.536 146.692Z" fill="#FF8300"/>
<path d="M44.1154 36.1796C32.2264 38.3644 30.5947 40.1353 28.5828 53.0448C26.5709 40.1366 24.9392 38.3644 13.0503 36.1796C24.9392 33.9949 26.5709 32.2227 28.5828 19.3145C30.5947 32.2227 32.2264 33.9949 44.1154 36.1796Z" fill="#FF8300"/>
<g clip-path="url(#clip0_600_1119)">
<path d="M105.107 45.2539H68.3832C66.5092 45.2539 64.99 46.7629 64.99 48.6243V123.63C64.99 125.491 66.5092 127 68.3832 127H105.107C106.981 127 108.5 125.491 108.5 123.63V48.6243C108.5 46.7629 106.981 45.2539 105.107 45.2539Z" fill="#FF8300"/>
<path d="M88.0141 46.5884H76.6397C75.9361 46.5884 75.3657 47.1544 75.3657 47.8526C75.3657 48.5508 75.9361 49.1168 76.6397 49.1168H88.0141C88.7176 49.1168 89.288 48.5508 89.288 47.8526C89.288 47.1544 88.7176 46.5884 88.0141 46.5884Z" fill="#1B2C5A"/>
<path d="M82.3268 78.0615C88.0294 78.0615 92.6524 73.4696 92.6524 67.8052C92.6524 62.1407 88.0294 57.5488 82.3268 57.5488C76.6241 57.5488 72.0012 62.1407 72.0012 67.8052C72.0012 73.4696 76.6241 78.0615 82.3268 78.0615Z" stroke="#1B2C5A" stroke-miterlimit="10"/>
<path d="M76.3857 67.9621L81.5485 72.6526L88.5504 63.5903" stroke="#1B2C5A" stroke-miterlimit="10"/>
<path d="M101.244 42.1191H63.4932C61.9062 42.1191 60.6196 43.397 60.6196 44.9734V121.132C60.6196 122.709 61.9062 123.987 63.4932 123.987H101.244C102.831 123.987 104.118 122.709 104.118 121.132V44.9734C104.118 43.397 102.831 42.1191 101.244 42.1191Z" stroke="#1B2C5A" stroke-miterlimit="10"/>
</g>
<defs>
<linearGradient id="paint0_linear_600_1119" x1="9.5" y1="80.0001" x2="158.612" y2="80.0001" gradientUnits="userSpaceOnUse">
<stop stop-color="#FFECD2"/>
<stop offset="1" stop-color="#FCB69F"/>
</linearGradient>
<clipPath id="clip0_600_1119">
<rect width="48" height="85" fill="white" transform="translate(60.5 42)"/>
</clipPath>
</defs>
</svg>
