<svg width="169" height="169" viewBox="0 0 169 169" fill="none" xmlns="http://www.w3.org/2000/svg">
<path d="M158.612 80.0001C158.612 121.176 125.232 154.556 84.0562 154.556C42.88 154.556 9.5 121.176 9.5 80.0001C9.5 38.8238 42.88 5.44385 84.0562 5.44385C125.232 5.44385 158.612 38.8238 158.612 80.0001Z" fill="url(#paint0_linear_600_1128)"/>
<path d="M90.2698 10.9438C131.17 10.9441 164.325 44.1005 164.325 85.0005C164.325 125.9 131.17 159.056 90.2698 159.056C49.3698 159.056 16.2134 125.9 16.2131 85.0005C16.2131 44.1004 49.3697 10.9438 90.2698 10.9438Z" stroke="#FF8300"/>
<path d="M135.536 146.692C126.364 148.359 125.105 149.71 123.553 159.563C122.001 149.712 120.743 148.359 111.571 146.692C120.743 145.024 122.001 143.672 123.553 133.82C125.105 143.672 126.364 145.024 135.536 146.692Z" fill="#FF8300"/>
<path d="M44.1154 36.1796C32.2264 38.3644 30.5947 40.1353 28.5828 53.0448C26.5709 40.1366 24.9392 38.3644 13.0503 36.1796C24.9392 33.9949 26.5709 32.2227 28.5828 19.3145C30.5947 32.2227 32.2264 33.9949 44.1154 36.1796Z" fill="#FF8300"/>
<g clip-path="url(#clip0_600_1128)">
<path d="M88.7452 65.2621C94.3293 65.2621 98.856 60.7252 98.856 55.1286C98.856 49.532 94.3293 44.9951 88.7452 44.9951C83.1612 44.9951 78.6345 49.532 78.6345 55.1286C78.6345 60.7252 83.1612 65.2621 88.7452 65.2621Z" fill="#FF8300"/>
<path d="M131.015 91.3004C130.958 91.1144 130.751 91.0072 130.565 91.0715C130.38 91.1287 130.273 91.3361 130.337 91.5221C131.179 94.1752 130.815 96.1275 129.288 97.1716C127.575 98.3445 124.957 98.0155 124.186 97.3862C124.051 97.2789 123.858 97.2861 123.73 97.4005C123.73 97.2503 123.73 97.1001 123.722 96.95C123.251 86.0227 114.083 76.9905 103.173 74.2944C92.27 71.5983 82.623 74.2944 78.0422 76.9905C78.0422 76.9905 72.0342 68.9094 62.8654 71.4482C62.8654 71.4482 65.2343 73.6651 66.3403 78.5781C67.4462 83.4911 61.7594 91.7295 61.7594 91.7295L57.6495 91.5721C57.6495 91.5721 55.9084 91.8868 55.9084 95.6913C55.9084 99.4958 56.3794 104.881 56.8574 105.989C57.3284 107.098 57.4925 107.098 59.8614 107.412C62.2303 107.727 63.3363 108.521 63.3363 108.521L66.6542 113.591L70.1291 116.759L69.3371 124.84C69.3371 124.84 68.5451 126.428 71.3921 126.9C74.239 127.372 78.8199 126.106 78.8199 126.106L81.3458 120.878C81.3458 120.878 88.4597 124.84 103.001 121.193L103.158 125.47C103.158 125.47 103.158 127.057 108.06 126.421C112.962 125.784 114.225 125.155 114.696 121.83L115.167 118.504L115.638 115.021C115.638 115.021 123.658 108.321 123.715 97.9583C124.258 98.3945 125.292 98.6806 126.441 98.6806C127.59 98.6806 128.717 98.416 129.666 97.7724C130.936 96.907 132.192 95.0763 130.993 91.3147L131.015 91.3004Z" fill="#FF8300"/>
<path d="M58.7424 66.252C62.7834 65.3982 66.1394 66.661 68.5481 68.21C69.8338 69.0367 70.8432 69.9421 71.5305 70.6406C71.8736 70.9893 72.1359 71.2848 72.3108 71.4922C72.3982 71.5958 72.464 71.6778 72.5071 71.7324C72.5285 71.7596 72.5448 71.7797 72.5549 71.793C72.56 71.7996 72.5635 71.8047 72.5657 71.8076C72.5667 71.809 72.5672 71.81 72.5676 71.8105L72.8352 72.1709L73.2229 71.9434C77.6969 69.3103 87.2031 66.6386 97.9797 69.3018C108.731 71.9587 117.69 80.8414 118.15 91.4932C118.379 96.8186 116.415 101.23 114.377 104.323C113.359 105.868 112.326 107.079 111.549 107.901C111.161 108.312 110.837 108.625 110.612 108.835C110.499 108.94 110.411 109.019 110.352 109.071C110.322 109.097 110.3 109.116 110.285 109.129C110.278 109.135 110.273 109.14 110.27 109.143L110.266 109.146L110.116 109.27L110.091 109.462L109.62 112.941L109.15 116.268C108.922 117.878 108.521 118.689 107.712 119.224C106.838 119.802 105.417 120.112 102.945 120.433C100.525 120.747 99.4246 120.493 98.9495 120.247C98.7229 120.13 98.646 120.018 98.6213 119.974C98.6122 119.957 98.6078 119.945 98.6057 119.938L98.4495 115.683L98.427 115.065L97.8284 115.216C90.6194 117.024 85.2716 116.942 81.7424 116.417C79.9773 116.155 78.6645 115.781 77.7991 115.477C77.3665 115.324 77.0452 115.189 76.8352 115.094C76.7302 115.046 76.6523 115.008 76.6028 114.983C76.5781 114.971 76.56 114.962 76.5491 114.956C76.5439 114.953 76.5404 114.951 76.5383 114.95L76.5364 114.949L76.0745 114.691L75.844 115.169L73.4182 120.188C73.2915 120.22 73.1135 120.266 72.8938 120.317C72.4272 120.427 71.7756 120.569 71.0374 120.695C69.5441 120.951 67.7576 121.135 66.4221 120.914C65.081 120.692 64.7891 120.242 64.718 120.037C64.6754 119.914 64.6791 119.794 64.6975 119.697C64.7066 119.65 64.7182 119.612 64.7268 119.588C64.731 119.576 64.7342 119.569 64.7356 119.565V119.564L64.7737 119.488L64.7825 119.396L65.5754 111.315L65.5999 111.066L65.4143 110.897L61.9846 107.771L58.7034 102.755L58.6516 102.677L58.5764 102.622H58.5754L58.5745 102.621L58.5725 102.62C58.5711 102.619 58.5696 102.618 58.5676 102.616C58.5637 102.613 58.5582 102.61 58.552 102.605C58.5397 102.597 58.5232 102.586 58.5022 102.572C58.4597 102.545 58.3992 102.508 58.3206 102.464C58.1632 102.375 57.9327 102.258 57.6272 102.131C57.0158 101.877 56.1046 101.588 54.8752 101.425C54.2776 101.345 53.8364 101.288 53.4934 101.229C53.1474 101.169 52.942 101.112 52.804 101.05C52.5975 100.957 52.5013 100.847 52.2649 100.299C52.1742 100.089 52.0618 99.6055 51.9495 98.8789C51.8402 98.1726 51.7378 97.2873 51.6497 96.3135C51.4733 94.3658 51.3567 92.0839 51.3567 90.1992C51.3567 88.37 51.775 87.4613 52.1204 87.0215C52.2935 86.801 52.4578 86.6863 52.5647 86.6279C52.6063 86.6053 52.6407 86.591 52.6643 86.582L56.6887 86.7363L56.9631 86.7471L57.1194 86.5215V86.5205L57.1204 86.5195C57.1212 86.5183 57.1228 86.5159 57.1243 86.5137C57.1272 86.5093 57.1315 86.5031 57.137 86.4951C57.1482 86.4786 57.1647 86.4543 57.1858 86.4229C57.2284 86.3595 57.2904 86.2659 57.3684 86.1465C57.5243 85.9077 57.7452 85.5623 58.0061 85.1328C58.5278 84.2741 59.2128 83.0754 59.8635 81.7197C60.5133 80.366 61.1351 78.8434 61.5237 77.3379C61.9104 75.8392 62.0779 74.3141 61.7766 72.9756C61.2101 70.4593 60.3173 68.6247 59.5598 67.4131C59.2556 66.9265 58.973 66.541 58.7424 66.252Z" stroke="#1B2C5A" stroke-miterlimit="10"/>
<path d="M80.2542 74.0372C80.2542 74.0372 90.372 71.6629 98.1138 74.6736" stroke="#1B2C5A" stroke-miterlimit="10"/>
<path d="M66.426 86.8667C67.3441 86.8667 68.0885 86.1207 68.0885 85.2004C68.0885 84.2802 67.3441 83.5342 66.426 83.5342C65.5078 83.5342 64.7634 84.2802 64.7634 85.2004C64.7634 86.1207 65.5078 86.8667 66.426 86.8667Z" fill="#1B2C5A"/>
<path d="M118.858 91.9616C120.521 93.306 127.949 93.1487 125.573 85.7041" stroke="#1B2C5A" stroke-miterlimit="10" stroke-linecap="round"/>
<path d="M87.5465 61.4078C91.9089 61.4078 95.4453 57.8635 95.4453 53.4913C95.4453 49.1191 91.9089 45.5747 87.5465 45.5747C83.1841 45.5747 79.6477 49.1191 79.6477 53.4913C79.6477 57.8635 83.1841 61.4078 87.5465 61.4078Z" stroke="#1B2C5A" stroke-miterlimit="10"/>
<path d="M87.5465 63.6244C93.1305 63.6244 97.6572 59.0875 97.6572 53.4909C97.6572 47.8943 93.1305 43.3574 87.5465 43.3574C81.9625 43.3574 77.4358 47.8943 77.4358 53.4909C77.4358 59.0875 81.9625 63.6244 87.5465 63.6244Z" stroke="#1B2C5A" stroke-miterlimit="10"/>
<path d="M89.2161 50.7165C88.7594 50.2517 88.3884 49.9871 87.6534 49.9871C86.8257 49.9871 86.2692 50.5663 86.2692 51.3387C86.2692 53.4054 89.7797 52.7332 89.7797 55.5079C89.7797 56.6736 89.002 57.4245 87.896 57.5461V58.7689H87.368V57.5461C86.5475 57.4817 85.784 57.0598 85.3059 56.6021L85.6413 56.1444C86.1193 56.5806 86.7686 56.9954 87.5892 56.9954C88.5953 56.9954 89.1376 56.409 89.1376 55.5437C89.1376 53.2123 85.6199 53.8345 85.6199 51.3601C85.6199 50.3089 86.3477 49.5437 87.368 49.4221V48.1992H87.896V49.4221C88.6952 49.4865 89.1661 49.8583 89.58 50.3089L89.2161 50.7093V50.7165Z" fill="#1B2C5A"/>
</g>
<defs>
<linearGradient id="paint0_linear_600_1128" x1="9.5" y1="80.0001" x2="158.612" y2="80.0001" gradientUnits="userSpaceOnUse">
<stop stop-color="#FFECD2"/>
<stop offset="1" stop-color="#FCB69F"/>
</linearGradient>
<clipPath id="clip0_600_1128">
<rect width="81" height="84" fill="white" transform="translate(50.5 43)"/>
</clipPath>
</defs>
</svg>
