<svg width="169" height="169" viewBox="0 0 169 169" fill="none" xmlns="http://www.w3.org/2000/svg">
<path d="M158.612 80.0001C158.612 121.176 125.232 154.556 84.0562 154.556C42.88 154.556 9.5 121.176 9.5 80.0001C9.5 38.8238 42.88 5.44385 84.0562 5.44385C125.232 5.44385 158.612 38.8238 158.612 80.0001Z" fill="url(#paint0_linear_600_1102)"/>
<path d="M90.2698 10.9438C131.17 10.9441 164.325 44.1005 164.325 85.0005C164.325 125.9 131.17 159.056 90.2698 159.056C49.3698 159.056 16.2134 125.9 16.2131 85.0005C16.2131 44.1004 49.3697 10.9438 90.2698 10.9438Z" stroke="#FF8300"/>
<path d="M135.535 146.692C126.364 148.359 125.105 149.71 123.553 159.563C122.001 149.712 120.742 148.359 111.571 146.692C120.742 145.024 122.001 143.672 123.553 133.82C125.105 143.672 126.364 145.024 135.535 146.692Z" fill="#FF8300"/>
<path d="M44.1154 36.1796C32.2264 38.3644 30.5947 40.1353 28.5828 53.0448C26.5709 40.1366 24.9392 38.3644 13.0503 36.1796C24.9392 33.9949 26.5709 32.2227 28.5828 19.3145C30.5947 32.2227 32.2264 33.9949 44.1154 36.1796Z" fill="#FF8300"/>
<g clip-path="url(#clip0_600_1102)">
<path d="M76.9041 94.6338C76.9041 94.6338 77.0465 96.3522 71.7333 98.0055C66.4201 99.6589 65.5607 98.1622 65.5607 98.1622L59.1057 81.653L52.6506 65.1439L60.7013 62.6398L68.752 60.1357L72.8293 77.3848L76.9065 94.6338H76.9041Z" fill="#FF8300"/>
<path d="M57.696 66.2835C65.194 66.2835 71.2723 60.215 71.2723 52.7292C71.2723 45.2433 65.194 39.1748 57.696 39.1748C50.198 39.1748 44.1196 45.2433 44.1196 52.7292C44.1196 60.215 50.198 66.2835 57.696 66.2835Z" fill="#FF8300"/>
<path d="M50.3115 68.2312L56.6917 84.5452L63.1468 101.054C63.1468 101.054 64.0061 102.551 69.3194 100.898C74.6326 99.2443 74.4901 97.5259 74.4901 97.5259L70.4129 80.2769L66.4153 63.3677" stroke="#1B2C5A" stroke-width="0.654815" stroke-miterlimit="10"/>
<path d="M55.2819 69.1761C62.7799 69.1761 68.8582 63.1076 68.8582 55.6217C68.8582 48.1359 62.7799 42.0674 55.2819 42.0674C47.7839 42.0674 41.7056 48.1359 41.7056 55.6217C41.7056 63.1076 47.7839 69.1761 55.2819 69.1761Z" stroke="#1B2C5A" stroke-width="0.654815" stroke-miterlimit="10"/>
<path d="M67.9674 50.707C68.8823 53.6377 63.8201 57.8168 56.6602 60.0437C49.5027 62.2707 42.9584 61.6995 42.0435 58.7688" stroke="#1B2C5A" stroke-width="0.654815" stroke-miterlimit="10"/>
<path d="M118.181 55.2062C116.452 52.5069 116.805 49.1954 118.948 47.7397L116.351 43.6812L83.9863 64.3308L86.5959 68.4087C88.795 67.3362 91.7546 68.4328 93.4058 71.0116C95.0569 73.5904 94.8107 76.7332 92.9133 78.2756L95.5228 82.3535L127.887 61.7038L125.29 57.6452C123.067 58.978 119.909 57.9031 118.181 55.2038V55.2062Z" fill="#FF8300"/>
<path d="M114.746 54.8014C113.017 52.1021 113.37 48.7907 115.513 47.335L112.916 43.2764L80.5513 63.926L83.1608 68.0039C85.36 66.9314 88.3195 68.028 89.9707 70.6068C91.6219 73.1856 91.3756 76.3284 89.4782 77.8708L92.0878 81.9487L124.452 61.299L121.855 57.2404C119.631 58.5732 116.474 57.4983 114.746 54.799V54.8014Z" stroke="#1B2C5A" stroke-width="0.654815" stroke-miterlimit="10"/>
<path d="M93.8884 64.8662L95.4889 66.3219L97.0242 65.3434L96.4786 67.2233L98.0791 68.6814L96.1407 68.3849L95.5951 70.2648L94.9433 68.2018L93.0049 67.9077L94.5402 66.9268L93.8884 64.8662Z" fill="#1B2C5A"/>
<path d="M101.027 60.3105L102.627 61.7687L104.162 60.7877L103.617 62.6676L105.217 64.1257L103.279 63.8293L102.733 65.7092L102.082 63.6485L100.143 63.3521L101.678 62.3736L101.027 60.3105Z" fill="#1B2C5A"/>
<path d="M108.165 55.7554L109.765 57.2135L111.301 56.235L110.755 58.1149L112.356 59.5705L110.419 59.2765L109.874 61.1564L109.22 59.0934L107.284 58.7969L108.817 57.8184L108.165 55.7554Z" fill="#1B2C5A"/>
<path d="M34.485 96.5558C36.7115 96.5558 38.5164 95.3969 38.5164 93.9673C38.5164 92.5378 36.7115 91.3789 34.485 91.3789C32.2585 91.3789 30.4536 92.5378 30.4536 93.9673C30.4536 95.3969 32.2585 96.5558 34.485 96.5558Z" fill="#FF8300"/>
<path d="M33.4784 94.9747C35.7049 94.9747 37.5098 93.8158 37.5098 92.3863C37.5098 90.9567 35.7049 89.7979 33.4784 89.7979C31.2519 89.7979 29.447 90.9567 29.447 92.3863C29.447 93.8158 31.2519 94.9747 33.4784 94.9747Z" stroke="#1B2C5A" stroke-width="0.654815" stroke-miterlimit="10"/>
<path d="M37.5098 92.3865L38.5164 81.3193L44.421 84.3368" stroke="#1B2C5A" stroke-width="0.654815" stroke-miterlimit="10"/>
<path d="M130.593 85.5275C132.82 85.5275 134.625 84.3686 134.625 82.939C134.625 81.5095 132.82 80.3506 130.593 80.3506C128.367 80.3506 126.562 81.5095 126.562 82.939C126.562 84.3686 128.367 85.5275 130.593 85.5275Z" fill="#FF8300"/>
<path d="M132.585 88.2023C134.811 88.2023 136.616 87.0434 136.616 85.6138C136.616 84.1843 134.811 83.0254 132.585 83.0254C130.358 83.0254 128.553 84.1843 128.553 85.6138C128.553 87.0434 130.358 88.2023 132.585 88.2023Z" stroke="#1B2C5A" stroke-width="0.654815" stroke-miterlimit="10"/>
<path d="M128.553 85.614L127.544 74.5469L121.642 77.5643" stroke="#1B2C5A" stroke-width="0.654815" stroke-miterlimit="10"/>
<path d="M140.306 103.742C140.306 103.742 139.413 97.719 127.167 100.645C124.292 101.332 111.104 106.526 111.104 106.526L95.0246 99.4326L90.59 101.893L100.977 111.1C91.8719 115.04 84.0047 118.576 84.0047 118.576L75.6836 113.402L71.2974 117.255L83.2225 128.39L103.915 119.456L95.1766 137.758L103.556 136.866L115.503 114.816L140.309 103.742H140.306Z" fill="#FF8300"/>
<path d="M138.741 99.2482C138.741 99.2482 137.848 93.2254 125.602 96.1512C122.726 96.8381 109.539 102.032 109.539 102.032L93.4591 94.939L89.0246 97.3997L99.4121 106.606C90.3065 110.547 82.4392 114.082 82.4392 114.082L74.1182 108.908L69.7319 112.762L81.6571 123.896L102.35 114.962L93.6112 133.264L101.99 132.373L113.937 110.323L138.743 99.2482H138.741Z" stroke="#1B2C5A" stroke-width="0.654815" stroke-miterlimit="10" stroke-linejoin="round"/>
</g>
<defs>
<linearGradient id="paint0_linear_600_1102" x1="9.5" y1="80.0001" x2="158.612" y2="80.0001" gradientUnits="userSpaceOnUse">
<stop stop-color="#FFECD2"/>
<stop offset="1" stop-color="#FCB69F"/>
</linearGradient>
<clipPath id="clip0_600_1102">
<rect width="117.711" height="104.597" fill="white" transform="translate(25.7085 36.4033)"/>
</clipPath>
</defs>
</svg>
