<svg width="169" height="169" viewBox="0 0 169 169" fill="none" xmlns="http://www.w3.org/2000/svg">
<path d="M158.612 80.0001C158.612 121.176 125.232 154.556 84.0562 154.556C42.88 154.556 9.5 121.176 9.5 80.0001C9.5 38.8238 42.88 5.44385 84.0562 5.44385C125.232 5.44385 158.612 38.8238 158.612 80.0001Z" fill="url(#paint0_linear_600_1022)"/>
<path d="M90.2695 10.9438C131.169 10.9441 164.325 44.1005 164.325 85.0005C164.325 125.9 131.169 159.056 90.2695 159.056C49.3696 159.056 16.2131 125.9 16.2129 85.0005C16.2129 44.1004 49.3694 10.9438 90.2695 10.9438Z" stroke="#FF8300"/>
<path d="M135.535 146.692C126.364 148.359 125.105 149.71 123.553 159.563C122.001 149.712 120.742 148.359 111.571 146.692C120.742 145.024 122.001 143.672 123.553 133.82C125.105 143.672 126.364 145.024 135.535 146.692Z" fill="#FF8300"/>
<path d="M44.1154 36.1796C32.2264 38.3644 30.5947 40.1353 28.5828 53.0448C26.5709 40.1366 24.9392 38.3644 13.0503 36.1796C24.9392 33.9949 26.5709 32.2227 28.5828 19.3145C30.5947 32.2227 32.2264 33.9949 44.1154 36.1796Z" fill="#FF8300"/>
<path d="M60.2418 72.2669C61.1602 71.1183 61.7833 69.576 61.619 68C60.2747 68.0668 58.6342 68.8869 57.6845 70.0364C56.8317 71.0208 56.077 72.6276 56.2737 74.1376C57.7828 74.2685 59.2904 73.3833 60.2418 72.2669Z" fill="black"/>
<path d="M61.6017 74.4321C59.4102 74.3015 57.5469 75.6759 56.5004 75.6759C55.4532 75.6759 53.8506 74.4979 52.1173 74.5296C49.8612 74.5628 47.7678 75.8383 46.623 77.8671C44.2682 81.9257 46.0016 87.946 48.2915 91.2515C49.4035 92.8869 50.7437 94.6875 52.5096 94.6228C54.178 94.5574 54.832 93.5425 56.8601 93.5425C58.8867 93.5425 59.4758 94.6228 61.242 94.5901C63.0735 94.5573 64.2186 92.9539 65.3306 91.317C66.6063 89.4528 67.1285 87.6528 67.1614 87.554C67.1285 87.5212 63.6296 86.179 63.5972 82.1541C63.5641 78.784 66.3442 77.181 66.475 77.0816C64.9051 74.7597 62.4521 74.4979 61.6017 74.4321Z" fill="black"/>
<path d="M80.6834 69.8716C85.4466 69.8716 88.7634 73.1549 88.7634 77.9351C88.7634 82.7324 85.3783 86.0327 80.564 86.0327H75.2903V94.4195H71.48V69.8716L80.6834 69.8716ZM75.2902 82.8344H79.6623C82.9797 82.8344 84.8678 81.0484 84.8678 77.9522C84.8678 74.8562 82.9797 73.087 79.6793 73.087H75.2902V82.8344Z" fill="black"/>
<path d="M89.7583 89.3329C89.7583 86.2025 92.157 84.2803 96.4102 84.0421L101.309 83.753V82.3752C101.309 80.3847 99.9652 79.1939 97.7201 79.1939C95.5931 79.1939 94.2662 80.2144 93.9433 81.8137H90.473C90.6771 78.5813 93.4327 76.1997 97.8559 76.1997C102.194 76.1997 104.967 78.4963 104.967 82.0857V94.4192H101.445V91.4762H101.36C100.323 93.4667 98.06 94.7254 95.7126 94.7254C92.2081 94.7254 89.7583 92.5479 89.7583 89.3329ZM101.309 87.7168V86.3049L96.903 86.5769C94.7085 86.7301 93.4669 87.6998 93.4669 89.2308C93.4669 90.7957 94.7597 91.8165 96.7331 91.8165C99.3017 91.8165 101.309 90.0472 101.309 87.7168Z" fill="black"/>
<path d="M108.291 101.003V98.0258C108.563 98.0937 109.175 98.0937 109.482 98.0937C111.183 98.0937 112.102 97.3794 112.663 95.5421C112.663 95.508 112.986 94.4534 112.986 94.4363L106.522 76.5229H110.502L115.028 91.0851H115.095L119.621 76.5229H123.5L116.796 95.3548C115.266 99.693 113.497 101.088 109.788 101.088C109.482 101.088 108.563 101.054 108.291 101.003Z" fill="black"/>
<defs>
<linearGradient id="paint0_linear_600_1022" x1="9.5" y1="80.0001" x2="158.612" y2="80.0001" gradientUnits="userSpaceOnUse">
<stop stop-color="#FFECD2"/>
<stop offset="1" stop-color="#FCB69F"/>
</linearGradient>
</defs>
</svg>
