<svg width="169" height="169" viewBox="0 0 169 169" fill="none" xmlns="http://www.w3.org/2000/svg">
<path d="M159.112 80.0001C159.112 121.176 125.732 154.556 84.5562 154.556C43.38 154.556 10 121.176 10 80.0001C10 38.8238 43.38 5.44385 84.5562 5.44385C125.732 5.44385 159.112 38.8238 159.112 80.0001Z" fill="url(#paint0_linear_600_1060)"/>
<path d="M90.7698 10.9438C131.67 10.9441 164.825 44.1005 164.825 85.0005C164.825 125.9 131.67 159.056 90.7698 159.056C49.8698 159.056 16.7134 125.9 16.7131 85.0005C16.7131 44.1004 49.8697 10.9438 90.7698 10.9438Z" stroke="#FF8300"/>
<path d="M136.036 146.692C126.864 148.359 125.605 149.71 124.053 159.563C122.501 149.712 121.243 148.359 112.071 146.692C121.243 145.024 122.501 143.672 124.053 133.82C125.605 143.672 126.864 145.024 136.036 146.692Z" fill="#FF8300"/>
<path d="M44.6154 36.1796C32.7264 38.3644 31.0947 40.1353 29.0828 53.0448C27.0709 40.1366 25.4392 38.3644 13.5503 36.1796C25.4392 33.9949 27.0709 32.2227 29.0828 19.3145C31.0947 32.2227 32.7264 33.9949 44.6154 36.1796Z" fill="#FF8300"/>
<g clip-path="url(#clip0_600_1060)">
<path d="M76.4669 55H73.832C73.4274 55 73.0994 55.331 73.0994 55.7394V72.2916C73.0994 72.6999 73.4274 73.0309 73.832 73.0309H76.4669C76.8715 73.0309 77.1995 72.6999 77.1995 72.2916V55.7394C77.1995 55.331 76.8715 55 76.4669 55Z" fill="black"/>
<path d="M70.0981 68.8993H62.9967V55.7399C62.9908 55.3344 62.6658 55.0005 62.2582 55.0005H59.6232C59.2215 55.0005 58.8906 55.3344 58.8906 55.7399V72.298C58.8906 72.7035 59.2156 73.0374 59.6232 73.0374H70.0981C70.4998 73.0374 70.8307 72.7094 70.8307 72.298V69.6387C70.8307 69.2332 70.5057 68.8993 70.0981 68.8993Z" fill="black"/>
<path d="M109.274 59.144C109.676 59.144 110.006 58.8161 110.006 58.4046V55.7394C110.006 55.3339 109.676 55 109.274 55H98.799C98.3973 55 98.0664 55.3279 98.0664 55.7394V72.2975C98.0664 72.703 98.3913 73.0369 98.799 73.0369H109.274C109.676 73.0369 110.006 72.7089 110.006 72.2975V69.6382C110.006 69.2327 109.676 68.8988 109.274 68.8988H102.172V66.0905H109.274C109.676 66.0905 110.006 65.7625 110.006 65.3511V62.6918C110.006 62.2863 109.676 61.9524 109.274 61.9524H102.172V59.144H109.274Z" fill="black"/>
<path d="M94.5571 55.0002H91.9222C91.5204 55.0002 91.1896 55.3282 91.1896 55.7396V65.3215L84.2891 55.3639C84.0941 55.0837 83.8046 55.0002 83.4797 55.0002C83.4383 54.9942 83.3969 55.0002 83.3556 55.0002H80.7206C80.3189 55.0002 79.988 55.3282 79.988 55.7396V72.2977C79.988 72.7032 80.313 73.0371 80.7206 73.0371H83.3556C83.7573 73.0371 84.0882 72.7092 84.0882 72.2977V62.2925L91.2841 72.6734C91.3078 72.7092 91.3373 72.7449 91.3668 72.7747C91.4909 72.9238 91.6681 73.0192 91.8749 73.0371H94.5631C94.9648 73.0371 95.2956 72.7092 95.2956 72.2977V55.7396C95.2956 55.3341 94.9648 55.0002 94.5631 55.0002H94.5571Z" fill="black"/>
<path d="M110.16 79.0771H59.0087C57.8993 79.0771 57 79.9848 57 81.1044V111.979C57 113.098 57.8993 114.006 59.0087 114.006H110.16C111.27 114.006 112.169 113.098 112.169 111.979V81.1044C112.169 79.9848 111.27 79.0771 110.16 79.0771Z" fill="#323232"/>
<path d="M76.8921 92.6959C76.8921 95.7666 74.4462 98.2352 71.2913 98.2352H68.8926V102.767C68.8926 103.065 68.6504 103.309 68.355 103.309H65.7732C65.4778 103.309 65.2356 103.065 65.2356 102.767V87.7052C65.2356 87.4071 65.4778 87.1626 65.7732 87.1626H71.2913C74.4462 87.1626 76.8921 89.6311 76.8921 92.7019V92.6959ZM73.235 92.6959C73.235 91.5213 72.4138 90.6209 71.2913 90.6209H68.8926V94.7709H71.2913C72.4138 94.7709 73.235 93.8705 73.235 92.6959Z" fill="white"/>
<path d="M90.4686 92.0578V103.023C90.4686 103.178 90.3445 103.309 90.185 103.309H87.3256C87.1719 103.309 87.042 103.184 87.042 103.023V102.224C86.2857 103.101 85.1691 103.631 83.639 103.631C80.6436 103.631 78.1741 100.978 78.1741 97.5434C78.1741 94.1089 80.6436 91.4556 83.639 91.4556C85.1691 91.4556 86.2917 91.9862 87.042 92.8627V92.0638C87.042 91.9087 87.166 91.7775 87.3256 91.7775H90.185C90.3386 91.7775 90.4686 91.9028 90.4686 92.0638V92.0578ZM87.042 97.5374C87.042 95.8083 85.9017 94.7231 84.3243 94.7231C82.7469 94.7231 81.6066 95.8083 81.6066 97.5374C81.6066 99.2666 82.7469 100.352 84.3243 100.352C85.9017 100.352 87.042 99.2666 87.042 97.5374Z" fill="white"/>
<path d="M101.883 92.0697L99.2539 98.7598L96.5303 92.0638C96.4594 91.8849 96.2821 91.7656 96.0931 91.7656H93.1745C92.9737 91.7656 92.8378 91.9743 92.9146 92.1592L97.4519 103.327L95.7977 107.531C95.7209 107.716 95.8627 107.924 96.0635 107.924H98.9821C99.1771 107.924 99.3484 107.805 99.4193 107.626L105.505 92.1592C105.581 91.9743 105.44 91.7656 105.239 91.7656H102.32C102.125 91.7656 101.954 91.8849 101.883 92.0638V92.0697Z" fill="white"/>
</g>
<defs>
<linearGradient id="paint0_linear_600_1060" x1="10" y1="80.0001" x2="159.112" y2="80.0001" gradientUnits="userSpaceOnUse">
<stop stop-color="#FFECD2"/>
<stop offset="1" stop-color="#FCB69F"/>
</linearGradient>
<clipPath id="clip0_600_1060">
<rect width="55.4024" height="59" fill="white" transform="translate(57 55)"/>
</clipPath>
</defs>
</svg>
