<svg width="9" height="14" viewBox="0 0 9 14" fill="none" xmlns="http://www.w3.org/2000/svg">
<path d="M7.71725 6.08354L1.97166 0.337947C1.86452 0.230804 1.73732 0.145815 1.59733 0.0878298C1.45734 0.0298448 1.3073 0 1.15578 0C0.84977 0 0.556291 0.121563 0.339908 0.337947C0.232765 0.445089 0.147775 0.572285 0.0897903 0.712273C0.0318054 0.852261 0.00196164 1.0023 0.00196164 1.15382C0.00196164 1.45983 0.123524 1.75331 0.339908 1.9697L5.28112 6.89942L0.339908 11.8291C0.232202 11.936 0.146715 12.0631 0.0883755 12.2031C0.0300362 12.3431 0 12.4933 0 12.645C0 12.7967 0.0300362 12.9469 0.0883755 13.0869C0.146715 13.227 0.232202 13.3541 0.339908 13.4609C0.446733 13.5686 0.573827 13.6541 0.713858 13.7124C0.853889 13.7708 1.00409 13.8008 1.15578 13.8008C1.30748 13.8008 1.45768 13.7708 1.59771 13.7124C1.73774 13.6541 1.86483 13.5686 1.97166 13.4609L7.71725 7.71529C7.82496 7.60847 7.91045 7.48137 7.96879 7.34134C8.02713 7.20131 8.05716 7.05112 8.05716 6.89942C8.05716 6.74772 8.02713 6.59753 7.96879 6.45749C7.91045 6.31746 7.82496 6.19037 7.71725 6.08354Z" fill="white"/>
</svg>
