<?xml version="1.0" encoding="utf-8"?>
<!-- Generator: Adobe Illustrator 23.0.3, SVG Export Plug-In . SVG Version: 6.00 Build 0)  -->
<svg version="1.1" id="圖層_1" xmlns="http://www.w3.org/2000/svg" xmlns:xlink="http://www.w3.org/1999/xlink" x="0px" y="0px"
	 viewBox="0 0 36 36" style="enable-background:new 0 0 36 36;" xml:space="preserve">
<style type="text/css">
	.st0{fill:#DEDDE2;}
	.st1{fill:#5F5F61;}
</style>
<circle class="st0" cx="18" cy="18" r="18"/>
<path class="st1" d="M13.2,18.8l5.8,5.8c0.1,0.1,0.2,0.2,0.4,0.3c0.1,0.1,0.3,0.1,0.4,0.1c0.3,0,0.6-0.1,0.8-0.3
	c0.1-0.1,0.2-0.2,0.3-0.4C21,24.1,21,24,21,23.8c0-0.3-0.1-0.6-0.3-0.8l-5-5l5-5c0.1-0.1,0.2-0.2,0.3-0.4c0.1-0.1,0.1-0.3,0.1-0.4
	s0-0.3-0.1-0.4c-0.1-0.1-0.1-0.3-0.3-0.4c-0.1-0.1-0.2-0.2-0.4-0.3C20.1,11,20,11,19.8,11c-0.2,0-0.3,0-0.4,0.1
	c-0.1,0.1-0.3,0.1-0.4,0.3l-5.8,5.8c-0.1,0.1-0.2,0.2-0.3,0.4c-0.1,0.1-0.1,0.3-0.1,0.4c0,0.2,0,0.3,0.1,0.4
	C13,18.6,13.1,18.7,13.2,18.8z"/>
</svg>
