<svg width="36" height="36" viewBox="0 0 36 36" fill="none" xmlns="http://www.w3.org/2000/svg">
<circle cx="18" cy="18" r="18" transform="matrix(-1 0 0 1 36 0)" fill="#DEDDE2"/>
<path d="M22.8301 17.1705L17.0005 11.3428C16.8918 11.2341 16.7627 11.1479 16.6207 11.0891C16.4786 11.0303 16.3264 11 16.1727 11C15.8622 11 15.5644 11.1233 15.3449 11.3428C15.2362 11.4514 15.1499 11.5805 15.0911 11.7225C15.0323 11.8644 15.002 12.0166 15.002 12.1703C15.002 12.4807 15.1253 12.7784 15.3449 12.9978L20.3583 17.998L15.3449 22.9982C15.2356 23.1065 15.1489 23.2354 15.0897 23.3775C15.0305 23.5195 15 23.6718 15 23.8257C15 23.9796 15.0305 24.1319 15.0897 24.274C15.1489 24.416 15.2356 24.5449 15.3449 24.6532C15.4533 24.7625 15.5822 24.8492 15.7243 24.9084C15.8664 24.9675 16.0188 24.998 16.1727 24.998C16.3266 24.998 16.479 24.9675 16.6211 24.9084C16.7631 24.8492 16.8921 24.7625 17.0005 24.6532L22.8301 18.8255C22.9393 18.7172 23.0261 18.5883 23.0853 18.4463C23.1445 18.3042 23.1749 18.1519 23.1749 17.998C23.1749 17.8441 23.1445 17.6918 23.0853 17.5498C23.0261 17.4077 22.9393 17.2788 22.8301 17.1705Z" fill="#5F5F61"/>
</svg>
