<svg width="58" height="25" viewBox="0 0 58 25" fill="none" xmlns="http://www.w3.org/2000/svg">
<path d="M10.8131 3.12977C11.4867 2.28725 11.9438 1.156 11.8233 0C10.8372 0.0490302 9.63396 0.650526 8.93732 1.4937C8.31182 2.21575 7.75819 3.39437 7.90252 4.50191C9.00941 4.59793 10.1153 3.94865 10.8131 3.12977Z" fill="black"/>
<path d="M11.8106 4.71833C10.2032 4.62258 8.83643 5.63064 8.06878 5.63064C7.30072 5.63064 6.1252 4.76658 4.85378 4.78987C3.19896 4.81417 1.66347 5.74982 0.823714 7.23795C-0.903518 10.2149 0.367898 14.6308 2.04754 17.0554C2.86321 18.255 3.84624 19.5757 5.14152 19.5283C6.36535 19.4803 6.84504 18.7358 8.33265 18.7358C9.81917 18.7358 10.2513 19.5283 11.5468 19.5043C12.8902 19.4802 13.7301 18.3041 14.5458 17.1035C15.4815 15.7361 15.8646 14.4157 15.8887 14.3433C15.8646 14.3193 13.2981 13.3347 13.2743 10.3824C13.2501 7.91049 15.2893 6.73469 15.3852 6.66177C14.2337 4.95862 12.4344 4.76658 11.8106 4.71833Z" fill="black"/>
<path d="M25.6394 1.37281C29.1332 1.37281 31.5661 3.78111 31.5661 7.28741C31.5661 10.8062 29.0831 13.227 25.5518 13.227H21.6835V19.3787H18.8887V1.3728L25.6394 1.37281ZM21.6835 10.8811H24.8904C27.3237 10.8811 28.7086 9.57103 28.7086 7.29992C28.7086 5.02906 27.3237 3.73128 24.9029 3.73128H21.6835V10.8811Z" fill="black"/>
<path d="M32.2964 15.6478C32.2964 13.3517 34.0558 11.9418 37.1756 11.767L40.769 11.555V10.5444C40.769 9.08435 39.7832 8.21091 38.1364 8.21091C36.5763 8.21091 35.6029 8.95944 35.3661 10.1325H32.8206C32.9703 7.76154 34.9916 6.01465 38.236 6.01465C41.4179 6.01465 43.4517 7.69921 43.4517 10.3321V19.3787H40.8686V17.22H40.8065C40.0455 18.68 38.3857 19.6033 36.6639 19.6033C34.0933 19.6033 32.2964 18.0061 32.2964 15.6478ZM40.769 14.4625V13.4268L37.5371 13.6263C35.9274 13.7387 35.0166 14.45 35.0166 15.573C35.0166 16.7208 35.9649 17.4696 37.4124 17.4696C39.2965 17.4696 40.769 16.1718 40.769 14.4625Z" fill="black"/>
<path d="M45.8901 24.2078V22.0241C46.0894 22.0739 46.5385 22.0739 46.7633 22.0739C48.011 22.0739 48.6849 21.5499 49.0965 20.2023C49.0965 20.1773 49.3338 19.4037 49.3338 19.3912L44.5923 6.25171H47.5118L50.8313 16.9331H50.8809L54.2004 6.25171H57.0454L52.1286 20.0649C51.0061 23.247 49.7083 24.2701 46.9881 24.2701C46.7633 24.2701 46.0894 24.2451 45.8901 24.2078Z" fill="black"/>
</svg>
