<svg width="207" height="67" viewBox="0 0 207 67" fill="none" xmlns="http://www.w3.org/2000/svg">
<path d="M94.1064 41.2934L100.932 26.5993C101.096 26.2549 101.228 25.8941 101.326 25.5333L103.754 16.4807C104.279 14.5127 103.869 12.4136 102.622 10.79C101.982 9.9536 101.146 9.29761 100.194 8.85482C99.9969 7.90364 99.5867 6.98526 98.9796 6.18168C97.7326 4.55811 95.8129 3.60693 93.7783 3.60693H80.9307C77.9609 3.60693 75.352 5.60769 74.5972 8.46123L73.3994 12.9219C73.2845 12.7907 73.1697 12.6595 73.0712 12.5447C72.6446 12.0856 72.1688 11.6756 71.6766 11.282C71.0366 9.90441 70.2326 8.80562 69.4286 7.95283C66.5736 4.88609 62.3896 3.32812 56.9913 3.32812H36.7601C31.8377 3.32812 27.5552 4.72211 24.0274 7.47725C20.3192 10.2816 17.7431 14.2503 16.3977 19.3014L11.1799 38.8006C9.70317 44.3109 10.179 48.9356 12.6238 52.5272C13.2801 53.5604 14.1826 54.6591 15.3968 55.6267C15.6593 56.1515 15.9382 56.6435 16.2664 57.1355C18.0385 59.9562 21.6319 63.2362 28.7202 63.2362H50.7562C55.6623 63.2362 60.0104 61.5798 63.6694 58.2998C63.7022 58.2834 63.7186 58.2507 63.7514 58.2343C64.2929 57.7423 64.7852 57.2011 65.2774 56.6599C65.786 57.1519 66.3603 57.5783 67.0003 57.8735C67.1971 58.8246 67.6073 59.743 68.2144 60.5466C69.4615 62.1702 71.3812 63.105 73.4158 63.105H86.2634C89.2332 63.105 91.8421 61.1042 92.5969 58.2506L95.5339 47.2629C96.059 45.2949 95.6488 43.1957 94.4018 41.5722C94.3197 41.4738 94.2377 41.359 94.1557 41.2606L94.1064 41.2934Z" fill="#231815"/>
<path d="M195.148 21.4661C195.049 20.2361 194.59 19.0389 193.818 18.0385C193.179 17.2021 192.325 16.5462 191.39 16.1034C191.193 15.1522 190.783 14.2338 190.176 13.4302C188.929 11.8066 187.009 10.8555 184.974 10.8555H178.592C176.147 10.8555 173.965 12.2002 172.833 14.283H170.552C169.403 12.1838 167.188 10.8555 164.793 10.8555H157.803C155.653 10.8555 153.635 11.9051 152.404 13.6762L150.682 16.1526C149.435 14.693 147.63 13.8238 145.694 13.8238H137.572C137.506 13.7418 137.457 13.6598 137.391 13.5778C136.144 11.9542 134.224 11.0195 132.19 11.0195H125.2C123.001 11.0195 121.016 12.1018 119.818 13.8402H111.368C108.398 13.8402 105.789 15.841 105.034 18.6945L103.393 24.8116C103.098 25.9432 103.098 27.1076 103.393 28.2063L101.884 33.8642C101.687 34.6022 101.621 35.3566 101.687 36.0946C101.556 37.4557 101.851 38.8169 102.524 39.9977C100.801 40.8013 99.4719 42.3265 98.9632 44.2452L97.4373 49.9031C96.9122 51.8711 97.3224 53.9702 98.5695 55.5938C99.2094 56.4302 100.046 57.0862 100.981 57.529C101.178 58.4801 101.589 59.3985 102.196 60.2021C103.443 61.8257 105.362 62.7604 107.397 62.7604H116.897C119.26 62.7604 121.426 62.1373 123.198 61.0057L123.428 60.8581C124.937 61.8585 127.136 62.7604 130.089 62.7604H139.901C141.969 62.7604 143.856 61.7765 145.07 60.2185C146.317 61.7273 148.155 62.6129 150.107 62.6129H156.195C157.097 62.6129 157.95 62.4325 158.754 62.1045C159.64 62.5309 160.625 62.7769 161.642 62.7769H174.162C177.263 62.7769 180.151 61.7273 182.48 59.7757C184.909 57.7586 186.533 55.2166 187.337 52.2483L191.406 37.0786C193.014 36.2586 194.261 34.7662 194.754 32.9294L196.296 27.1568C196.821 25.1888 196.411 23.0896 195.164 21.4825L195.148 21.4661Z" fill="#231815"/>
<path d="M56.9584 9.92094H36.7272C33.2651 9.92094 30.3444 10.8557 27.9816 12.7089C25.4056 14.644 23.6499 17.432 22.6818 21.0235L17.4641 40.5227C16.496 44.1143 16.6601 46.9842 18.0547 48.9686C19.351 51.1006 21.6809 52.1009 25.0118 52.1009H47.0479C50.3131 52.1009 53.1353 51.035 55.5801 48.8374C57.8772 46.7054 59.6001 43.7863 60.6009 40.0472L65.7859 20.6791C66.754 17.0876 66.3602 14.2833 64.6045 12.4301C63.0457 10.7737 60.4861 9.90454 56.9584 9.90454V9.92094ZM47.6385 40.9983H29.9342L35.3325 20.8431H53.0368L47.6385 40.9983Z" fill="url(#paint0_linear_600_2124)"/>
<path d="M78.4694 19.3016L77.0747 38.194H82.5222L91.3333 19.236L93.7617 10.1833H80.9142L78.4694 19.3016Z" fill="url(#paint1_linear_600_2124)"/>
<path d="M69.7239 51.9697H82.5714L85.5085 40.9983H72.6609L69.7239 51.9697Z" fill="url(#paint2_linear_600_2124)"/>
<path d="M132.173 17.5796H125.183L124.428 20.4003H111.351L109.71 26.5174H122.788L121.951 29.6333H109.776L108.184 35.57H130.746L122.673 40.1784L117.816 36.7508H108.201L115.962 43.9667L113.09 45.6066C112.647 45.8362 112.155 45.951 111.663 45.951H105.28L103.754 51.6089H113.255C114.354 51.6089 115.306 51.3465 116.126 50.8053L120.491 48.1486L122.919 50.4282C123.772 51.1825 124.921 51.6089 126.447 51.6089H136.259L137.785 45.951H132.157C131.205 45.951 130.434 45.7214 129.843 45.2295L127.776 43.7535L140.279 36.144L142.018 29.6498H128.974L129.81 26.5338H144.069L145.71 20.4167H131.451L132.206 17.596L132.173 17.5796Z" fill="url(#paint3_linear_600_2124)"/>
<path d="M184.056 20.8431L184.974 17.4155H178.592L177.673 20.8431H162.692L161.15 26.6157H176.13L171.7 43.1138C171.192 45.0162 170.535 45.9346 169.764 45.9346H159.493L157.967 51.5925H170.486C172.078 51.5925 173.44 51.1005 174.604 50.1165C175.966 48.9685 176.869 47.6073 177.328 45.9346L182.513 26.6157H184.761L186.303 20.8431H184.056Z" fill="url(#paint4_linear_600_2124)"/>
<path d="M161.363 29.0266L161.002 39.2928C160.953 41.4576 161.921 42.5235 163.972 42.5235H170.519L172.028 36.8985H168.763C167.959 36.8985 167.615 36.3737 167.713 35.2585L168.058 29.0266H161.363Z" fill="url(#paint5_linear_600_2124)"/>
<path d="M164.776 17.4319H157.786L153.569 23.5162C153.044 24.3526 152.519 24.7298 151.994 24.7298H151.092L149.533 30.5025H152.076L146.465 51.4449H152.552L159.772 24.533L164.793 17.4155L164.776 17.4319Z" fill="white"/>
<defs>
<linearGradient id="paint0_linear_600_2124" x1="41.5764" y1="12.8096" x2="41.5764" y2="86.163" gradientUnits="userSpaceOnUse">
<stop stop-color="white"/>
<stop offset="1" stop-color="#FFFF00"/>
</linearGradient>
<linearGradient id="paint1_linear_600_2124" x1="85.4182" y1="12.1118" x2="85.4182" y2="60.805" gradientUnits="userSpaceOnUse">
<stop stop-color="white"/>
<stop offset="1" stop-color="#FFFF00"/>
</linearGradient>
<linearGradient id="paint2_linear_600_2124" x1="77.6162" y1="41.7536" x2="77.6162" y2="60.8261" gradientUnits="userSpaceOnUse">
<stop stop-color="white"/>
<stop offset="1" stop-color="#FFFF00"/>
</linearGradient>
<linearGradient id="paint3_linear_600_2124" x1="124.732" y1="19.9224" x2="124.732" y2="79.0784" gradientUnits="userSpaceOnUse">
<stop stop-color="white"/>
<stop offset="1" stop-color="#FFFF00"/>
</linearGradient>
<linearGradient id="paint4_linear_600_2124" x1="172.135" y1="19.7685" x2="172.135" y2="79.1811" gradientUnits="userSpaceOnUse">
<stop stop-color="white"/>
<stop offset="1" stop-color="#FFFF00"/>
</linearGradient>
<linearGradient id="paint5_linear_600_2124" x1="166.514" y1="29.9558" x2="166.514" y2="53.4187" gradientUnits="userSpaceOnUse">
<stop stop-color="white"/>
<stop offset="1" stop-color="#FFFF00"/>
</linearGradient>
</defs>
</svg>
