<svg width="400" height="66" viewBox="0 0 400 66" fill="none" xmlns="http://www.w3.org/2000/svg">
<g clip-path="url(#clip0_600_2018)">
<path d="M398.949 19.4951C398.652 19.0969 398.277 18.7757 397.89 18.4931C397.774 17.6068 397.451 16.7461 396.896 16.0268C395.916 14.7551 394.406 14.0229 392.805 14.0229H372.543C372.104 14.0229 371.665 14.0743 371.252 14.1899C371.201 14.1899 371.136 14.1899 371.085 14.1899H356.823C354.488 14.1899 352.435 15.757 351.842 17.9922L349.377 27.1253C349.377 27.1253 349.261 27.0611 349.209 27.0225C349.093 26.1362 348.77 25.2755 348.215 24.5562C347.234 23.2845 345.724 22.5395 344.124 22.5395H339.568C339.581 21.3962 339.22 20.2658 338.51 19.3409C338.213 18.9427 337.839 18.6216 337.452 18.339C337.335 17.4527 337.013 16.592 336.458 15.8598C335.477 14.5881 333.967 13.8559 332.367 13.8559H325.397C323.061 13.8559 321.009 15.4231 320.416 17.6582L313.408 43.6702H307.058C307.148 43.1436 307.187 42.6041 307.11 42.0774C307.755 41.448 308.245 40.6387 308.491 39.7267L309.936 34.3573C310.143 33.5994 310.168 32.8158 310.014 32.0579C310.259 31.6469 310.452 31.2101 310.581 30.722L311.988 25.5196C312.401 23.9781 312.079 22.3339 311.098 21.0622C310.801 20.664 310.427 20.3429 310.039 20.0603C309.923 19.1739 309.601 18.3133 309.046 17.594C308.065 16.3222 306.555 15.5772 304.954 15.5772H282.408C281.44 14.2927 279.917 13.5219 278.278 13.5219H272.277C270.25 13.5219 268.405 14.7037 267.566 16.5406L266.727 18.3904C266.546 17.7738 266.288 17.1829 265.888 16.6562C264.907 15.3845 263.397 14.6523 261.797 14.6523H258.545C257.615 13.8559 256.415 13.4063 255.163 13.4063H249.33C248.052 13.4063 246.865 13.8688 245.948 14.6523H241.857C241.612 14.6523 241.367 14.6652 241.122 14.7037C240.296 14.1514 239.302 13.8431 238.269 13.8431H229.235C227.867 13.8431 226.551 14.3826 225.583 15.346L224.821 16.1039C224.06 16.2066 223.337 16.4635 222.705 16.8618C222.576 16.6305 222.46 16.3865 222.292 16.1809C221.311 14.9092 219.801 14.1642 218.201 14.1642H183.058C180.722 14.1642 178.67 15.7314 178.076 17.9665L177.547 19.919C176.682 19.0712 175.546 18.5445 174.333 18.4546L173.804 17.2471C172.978 15.3717 171.12 14.1642 169.068 14.1642H145.643C144.301 14.1642 143.023 14.678 142.055 15.6029L139.1 18.4418H137.835C137.345 18.4418 136.88 18.5188 136.428 18.6473C136.351 18.5831 136.261 18.5445 136.183 18.4803C136.067 17.594 135.744 16.7333 135.189 16.014C134.209 14.7423 132.699 13.9972 131.098 13.9972H110.191C109.752 13.9972 109.326 14.0486 108.913 14.1514H95.9296C93.5936 14.1514 91.5415 15.7185 90.9479 17.9536L89.5024 23.323C89.0894 24.8645 89.412 26.5087 90.3929 27.7804C90.7026 28.1786 91.064 28.5254 91.4512 28.808C89.3346 29.0264 87.5536 30.5165 86.9986 32.5846L85.5532 37.954C85.4499 38.3137 85.4112 38.6862 85.3854 39.0587C85.0498 37.9669 84.5723 37.0548 84.0948 36.3483C84.0561 36.2841 84.0044 36.2199 83.9657 36.1556C83.2817 35.2308 82.4557 34.46 81.5394 33.8435L84.753 29.8228C86.2759 27.9217 86.5598 25.3141 85.5015 23.1303C85.0369 22.1798 84.3529 21.3962 83.5398 20.7925C83.4495 20.1245 83.2688 19.4694 82.972 18.8528C81.9137 16.6691 79.681 15.2689 77.2417 15.2689H72.4923C70.5693 15.2689 68.7367 16.1424 67.5365 17.6325L67.2267 18.005C65.3812 16.2195 62.9032 15.2561 60.1026 15.2561H51.6621C49.9714 15.2561 48.3195 15.6157 46.7579 16.2966C47.3128 13.8045 46.7579 11.1969 45.1833 9.16733C44.68 8.51221 44.0863 7.95985 43.4281 7.48457C43.2345 5.99449 42.6667 4.56865 41.7245 3.34833C40.0855 1.21598 37.543 -0.0300293 34.8457 -0.0300293H27.6312C26.0954 -0.0300293 24.5983 0.36818 23.269 1.13891L7.47213 10.2849C5.49752 11.4281 4.05205 13.3036 3.45837 15.513L1.92257 21.2035C1.22564 23.7983 1.7806 26.5601 3.41966 28.6924C3.92299 29.3476 4.51666 29.8999 5.17487 30.3752C5.20068 30.5936 5.22649 30.8119 5.27811 31.0303L0.296415 49.2837C-0.400506 51.8785 0.15445 54.6403 1.79351 56.7726C2.29684 57.4277 2.89051 57.9801 3.54872 58.4554C3.74231 59.9454 4.31017 61.3713 5.2523 62.5916C6.89136 64.724 9.43383 65.97 12.1312 65.97H26.6891C30.6125 65.97 34.0455 63.3495 35.0651 59.5729L40.5501 39.2C40.7437 39.4184 40.9373 39.6368 41.1309 39.8423C41.4406 40.8699 41.8665 41.7434 42.3053 42.4242C43.0538 43.606 44.0218 44.5694 45.1317 45.3016L41.9052 49.2966C40.3694 51.1977 40.0726 53.8053 41.1309 56.0019C41.5955 56.9525 42.2795 57.7489 43.1055 58.3526C43.1958 59.0077 43.3636 59.6628 43.6604 60.2794C44.7187 62.476 46.9514 63.8762 49.4036 63.8762H54.5014C56.4502 63.8762 58.2829 62.9898 59.4831 61.4741L59.5218 61.4227C60.877 62.6045 62.9677 63.722 66.0265 63.722H74.0152C76.8804 63.722 79.5261 62.8228 81.875 61.0502C82.3654 60.6776 82.8171 60.2666 83.2559 59.8427C83.4366 60.4464 83.6947 61.0245 84.0819 61.5383C85.0627 62.81 86.5727 63.555 88.1731 63.555H100.782C101.195 63.6578 101.634 63.722 102.073 63.722H105.88C107.958 63.722 109.907 63.0412 111.533 61.7952C112.681 62.8742 114.553 63.889 117.547 63.889H124.026C125.484 63.889 126.826 63.2853 127.781 62.2833C128.749 63.2853 130.066 63.889 131.485 63.889H167.106C168.822 63.889 170.371 63.0412 171.313 61.7053C172.294 62.977 173.804 63.722 175.404 63.722H205.798C209.734 63.722 212.922 62.1292 214.922 59.3546C215.193 60.0097 215.516 60.562 215.852 60.9988C216.871 62.3219 218.833 63.889 222.408 63.889H233.03C233.107 63.889 233.184 63.889 233.249 63.889C233.326 63.889 233.391 63.889 233.468 63.889H238.54C240.67 63.889 242.58 63.3238 244.154 62.2576C245.535 63.3238 247.265 63.889 249.162 63.889H254.712C256.067 63.889 257.306 63.3623 258.235 62.4889C259.216 63.7606 260.726 64.4927 262.326 64.4927H265.656C267.901 64.4927 269.953 63.8119 271.657 62.5274C272.767 63.388 274.471 64.2101 276.961 64.2101H280.614C281.259 64.2101 281.891 64.0945 282.472 63.8633C283.389 64.1716 284.395 64.3258 285.492 64.3258H289.145C289.816 64.3258 290.448 64.1973 291.042 63.9661C291.816 64.1845 292.707 64.3258 293.726 64.3258H297.534C299.263 64.3258 300.825 63.4651 301.78 62.1035C302.747 63.1054 304.077 63.7092 305.484 63.7092H342.085C343.363 63.7092 344.537 63.2339 345.453 62.4503C346.421 63.4394 347.738 64.0303 349.132 64.0303H355.172C357.224 64.0303 359.056 62.8228 359.882 60.9988H360.244C360.321 60.9988 360.398 60.9988 360.476 60.9988C361.044 60.9731 361.599 60.9089 362.141 60.8189C363.225 62.2191 365.341 63.8633 369.278 63.8633H374.995C375.808 63.8633 376.595 63.6706 377.279 63.3238C378.08 63.6706 378.97 63.8633 379.899 63.8633H385.772C388.108 63.8633 390.16 62.2962 390.753 60.0611L392.108 55.0128C392.483 53.6383 392.263 52.1996 391.528 51.005C392.379 49.7718 393.309 48.179 394.38 46.1366C395.077 44.8135 395.154 43.2592 394.612 41.8847C395.115 40.9855 395.516 39.9964 395.799 38.9174L399.826 23.9525C400.239 22.411 399.916 20.7668 398.936 19.4951H398.949ZM344.653 44.608C343.801 44.0171 342.795 43.6702 341.736 43.6702H334.032L334.367 42.4114H344.511C344.769 42.4114 345.015 42.3857 345.273 42.3472L344.666 44.608H344.653Z" fill="#231815"/>
<path d="M11.7569 17.7866L10.234 23.4771H16.2223L8.67236 51.5188H23.2303L34.7682 8.64062H27.5538L11.7569 17.7866Z" fill="url(#paint0_linear_600_2018)"/>
<path d="M75.7447 38.5449H67.3558C66.2072 38.5449 65.0457 39.1358 63.9229 40.3304C62.7484 41.5251 62.0257 42.7197 61.6772 44.0042L60.3608 48.8727C59.9865 50.26 60.1414 51.3647 60.89 52.1097C61.4965 52.8034 62.3741 53.1117 63.4712 53.1117H71.4599C72.9054 53.1117 74.2347 52.6621 75.4866 51.7115C76.6739 50.8123 77.4999 49.6177 77.9 48.1276L79.2164 43.2592C79.5649 41.9618 79.41 40.87 78.7647 39.9322C78.1065 39.033 77.0869 38.5449 75.7447 38.5449ZM71.8858 48.0377H66.646L67.7946 43.7602H73.0345L71.8858 48.0377Z" fill="url(#paint1_linear_600_2018)"/>
<path d="M72.402 21.6401L46.8611 53.2657H51.946L77.1514 21.6401H72.402Z" fill="url(#paint2_linear_600_2018)"/>
<path d="M55.7404 36.207C57.1858 36.207 58.5022 35.7574 59.7799 34.7683C60.9673 33.8691 61.7933 32.6873 62.1675 31.2872L63.4839 26.4187C63.8324 25.1214 63.6775 24.0295 63.0968 23.0404C62.4386 22.1412 61.419 21.6531 60.0252 21.6531H51.5847C50.3844 21.6531 49.2874 21.9999 48.384 22.5908C47.287 23.3358 46.6159 24.3378 46.2803 25.5709L44.7445 31.2872C44.3831 32.6231 44.5251 33.7792 45.1575 34.7683C45.7899 35.7702 46.6675 36.207 47.7645 36.207H55.7533H55.7404ZM51.8686 26.8555H57.3665L56.2308 31.0816H50.7329L51.8686 26.8555Z" fill="url(#paint3_linear_600_2018)"/>
<path d="M110.139 19.1481L102.757 46.586H114.192L112.656 52.2766C112.127 54.2548 113.069 55.2567 115.495 55.2567H121.974L123.329 50.2084H120.451C119.599 50.2084 119.276 49.8873 119.457 49.245L120.193 46.4961C122.567 46.252 124.077 45.006 124.684 42.7838L131.047 19.1353H110.139V19.1481ZM119.199 40.2917C118.967 41.1395 118.334 41.5377 117.276 41.5377H110.139L110.823 38.9943H119.535L119.186 40.2789L119.199 40.2917ZM120.774 34.447H112.062L112.823 31.621H121.535L120.774 34.447ZM122.761 27.0609H114.05L114.824 24.1964H123.535L122.761 27.0609Z" fill="url(#paint4_linear_600_2018)"/>
<path d="M104.06 49.5662C103.699 50.0158 103.325 50.2084 102.912 50.2084H101.324L100.008 55.0897H103.815C105.196 55.0897 106.383 54.4474 107.325 53.1886L111.688 47.498H105.686L104.034 49.5533L104.06 49.5662Z" fill="url(#paint5_linear_600_2018)"/>
<path d="M97.0912 49.4121L99.8014 39.3284H103.286L104.731 33.959H101.247L103.751 24.6846H107.39L108.836 19.3152H95.8651L94.4196 24.6846H97.9042L95.4134 33.959H91.9288L90.4833 39.3284H93.9679L91.2577 49.4121H87.6053L86.1211 54.9357H99.2464L100.731 49.4121H97.0912Z" fill="url(#paint6_linear_600_2018)"/>
<path d="M137.306 48.9241H143.991L145.179 44.5309H140.881C140.636 44.5309 140.494 44.4538 140.455 44.2869L140.003 43.1179H133.809L134.738 47.5111C134.957 48.4745 135.822 48.9241 137.319 48.9241H137.306Z" fill="url(#paint7_linear_600_2018)"/>
<path d="M169.197 35.2435L170.681 29.72H137.409L135.925 35.2435H149.373L148.999 36.6565H135.099L133.602 42.1929H147.502L145.475 49.7332H130.93L129.433 55.2568H165.067L166.551 49.7332H152.006L154.032 42.1929H167.932L169.416 36.6565H155.516L155.903 35.2435H169.197Z" fill="url(#paint8_linear_600_2018)"/>
<path d="M159.608 44.3639H155.026L153.826 48.8085H160.64C162.55 48.8085 163.892 48.3203 164.654 47.3184L167.687 43.1179H161.208L160.201 44.1712C159.995 44.3254 159.827 44.3768 159.62 44.3768L159.608 44.3639Z" fill="url(#paint9_linear_600_2018)"/>
<path d="M171.365 23.5927C170.913 23.5927 170.616 23.2331 170.41 22.4623L169.029 19.3152H145.605L142.326 22.4623C141.668 23.2331 141.126 23.5927 140.687 23.5927H137.809L136.338 29.0777H141.888C142.778 29.0777 143.63 28.7566 144.417 28.1143L148.418 24.8516H163.286L165.325 28.1143C165.712 28.7566 166.319 29.0777 167.209 29.0777H172.436L173.907 23.5927H171.352H171.365Z" fill="url(#paint10_linear_600_2018)"/>
<path d="M183.006 19.3152L173.378 55.1027H203.772C206.934 55.1027 208.908 53.6511 209.67 50.8251L218.149 19.3152H183.006ZM204.146 47.8321C203.888 48.7955 203.243 49.2451 202.184 49.2451H181.277L187.755 25.1599H210.25L204.146 47.8321Z" fill="url(#paint11_linear_600_2018)"/>
<path d="M189.64 27.6648L184.374 47.2284H197.499C200.416 47.2284 202.287 45.854 203.023 43.1179L207.179 27.6648H189.627H189.64ZM197.783 40.2919C197.525 41.2553 196.919 41.7049 195.989 41.7049H191.859L194.157 33.1883H199.706L197.796 40.2919H197.783Z" fill="url(#paint12_linear_600_2018)"/>
<path d="M250.13 51.673L249.265 50.8252H236.785L235.701 51.673C235.495 51.8271 235.224 51.9556 234.901 51.9556H232.346L231.455 55.2697H236.527C237.869 55.2697 238.941 54.8715 239.715 54.1393L242.954 51.1078L244.735 54.1393C245.264 54.8715 246.052 55.2697 247.149 55.2697H252.698L253.589 51.9556H251.356C250.711 51.9556 250.336 51.84 250.13 51.673Z" fill="url(#paint13_linear_600_2018)"/>
<path d="M233.662 50.0544H249.472C252.234 50.0544 253.847 49.1681 254.337 47.3569L258.196 33.0342H238.256L233.675 50.0544H233.662ZM242.825 36.6566H251.666L251.42 37.5815H242.58L242.825 36.6566ZM241.638 41.0626H250.478L250.22 42.026H241.38L241.638 41.0626ZM240.45 45.4943H249.291C249.123 46.1366 248.555 46.4192 247.626 46.4192H240.205L240.45 45.4943Z" fill="url(#paint14_linear_600_2018)"/>
<path d="M252.75 27.3436H257.202C258.867 27.3436 259.926 26.5343 260.39 24.8387L261.745 19.7904H254.776L255.112 18.5444H249.278L248.943 19.7904H241.806L239.779 27.3307H246.916L246.658 28.2941H238.876L237.818 32.212H259.216L260.274 28.2941H252.492L252.75 27.3307V27.3436ZM253.937 22.9376H255.679L255.396 23.9909C255.357 24.1579 255.176 24.1964 254.853 24.1964H253.602L253.937 22.9504V22.9376ZM247.755 24.1964H245.845L246.181 22.9504H248.091L247.755 24.1964Z" fill="url(#paint15_linear_600_2018)"/>
<path d="M224.382 50.3756C223.647 50.3756 223.376 50.0545 223.544 49.4122L223.634 49.0911H232.513L233.739 44.5309H224.86L225.234 43.1179H231.236C233.43 43.1179 234.836 42.0646 235.404 39.9708L238.798 27.3437H234.385L234.875 25.5325C235.133 25.9307 235.572 26.0977 236.14 26.0977H239.302L240.618 21.2164H239.521C239.276 21.2164 239.082 21.0623 238.979 20.6512L238.205 18.9941H229.171L227.506 20.6512C227.157 21.0494 226.912 21.2164 226.706 21.2164H225.415L224.099 26.0977H227.428C227.919 26.0977 228.358 25.9307 228.861 25.6096L228.396 27.3437H224.266L217.723 51.6345C217.078 54.0494 217.955 55.2697 220.395 55.2697H231.016L232.333 50.3885H224.382V50.3756ZM231.429 23.5928H233.494L234.488 25.0058H229.622L231.416 23.5928H231.429ZM228.293 31.7754H232.552L232.216 33.0214H227.957L228.293 31.7754ZM226.809 37.2604H231.068L230.939 37.7485C230.771 38.3908 230.358 38.7119 229.751 38.7119H226.422L226.809 37.2604Z" fill="url(#paint16_linear_600_2018)"/>
<path d="M295.159 49.2451L295.649 45.7769H289.119L288.667 52.8804C288.654 54.743 289.648 55.7064 291.674 55.7064H295.481L296.837 50.6581H296.191C295.417 50.6581 295.056 50.2085 295.159 49.2451Z" fill="url(#paint17_linear_600_2018)"/>
<path d="M263.513 49.9774C263.204 50.5426 262.958 50.8252 262.765 50.8252H261.668L260.313 55.8735H263.642C265.553 55.8735 266.998 54.9871 267.94 53.2915L271.902 45.7898H265.424L263.526 49.9903L263.513 49.9774Z" fill="url(#paint18_linear_600_2018)"/>
<path d="M300.179 25.9305H303.509L304.916 20.7281H277.155L278.239 18.6729H272.238L270.444 22.6293C270.134 23.1945 269.863 23.4385 269.695 23.4385H268.405L267.179 27.9987H270.508C270.663 27.9987 270.831 27.9987 271.012 27.9601L270.573 29.5787H267.579L266.133 34.9481H269.127L267.94 39.3412H265.423L264.03 44.5436H298.514L299.908 39.3412H296.578L297.766 34.9481H301.418L302.864 29.5787H299.211L300.192 25.9434L300.179 25.9305ZM275.387 39.3284H273.812L275 34.9352H276.574L275.387 39.3284ZM278.007 29.553H276.432L277.413 25.9177H278.988L278.007 29.553ZM283.117 39.3284H281.207L282.395 34.9352H284.305L283.117 39.3284ZM285.75 29.553H283.84L284.821 25.9177H286.731L285.75 29.553ZM290.745 39.3284H289.003L290.19 34.9352H291.932L290.745 39.3284ZM293.378 29.553H291.635L292.616 25.9177H294.359L293.378 29.553Z" fill="url(#paint19_linear_600_2018)"/>
<path d="M278.433 49.091L278.871 45.7769H272.341L271.928 52.7134C271.902 54.6145 272.896 55.5779 274.922 55.5779H278.575L279.93 50.5297H279.439C278.665 50.5297 278.316 50.0415 278.407 49.0781L278.433 49.091Z" fill="url(#paint20_linear_600_2018)"/>
<path d="M286.938 49.2451L287.389 45.7769H280.911L280.42 52.8804C280.446 54.743 281.44 55.7064 283.466 55.7064H287.118L288.473 50.6581H287.983C287.209 50.6581 286.847 50.2085 286.938 49.2451Z" fill="url(#paint21_linear_600_2018)"/>
<path d="M332.328 18.9941H325.359L317.331 48.8085H305.135L303.444 55.1027H340.033L341.736 48.8085H324.3L328.34 33.7921H342.446L344.098 27.6648H329.992L332.328 18.9941Z" fill="url(#paint22_linear_600_2018)"/>
<path d="M364.115 35.6932C365.987 35.0509 367.097 34.0746 367.471 32.713L371.072 19.3152H356.81L347.092 55.4238H353.132L353.945 52.3923H358.204C360.876 52.2767 362.515 51.1463 363.109 48.924L365.741 39.1614C366.116 37.7484 365.587 36.5795 364.128 35.6932H364.115ZM359.598 39.4826L357.907 45.7768C357.649 46.7403 357.236 47.2284 356.746 47.2284H355.326L357.701 38.3907H359.121C359.611 38.3907 359.792 38.7504 359.598 39.4826ZM361.586 32.0964C361.392 32.8158 361.095 33.1883 360.76 33.1883H359.095L361.431 24.5176H363.625L361.586 32.1093V32.0964Z" fill="url(#paint23_linear_600_2018)"/>
<path d="M381.9 39.0074C385.591 39.0074 387.888 37.3888 388.766 34.1261L392.792 19.1611H372.53L363.922 51.1592C363.186 53.9081 364.27 55.2697 367.226 55.2697H372.943L374.427 49.7462H371.265C370.62 49.7462 370.414 49.2966 370.672 48.3332L372.285 42.36L376.415 54.1008C376.699 54.8715 377.15 55.2697 377.847 55.2697H383.72L385.075 50.2215H382.842C382.442 50.2215 382.132 49.9774 381.951 49.4507L381.19 47.6395C382.016 47.601 382.906 47.1514 383.823 46.3036C384.765 45.4943 386.081 43.4776 387.746 40.2919H381.874C380.919 42.1931 380.145 43.1179 379.538 43.1179H379.254L378.157 40.5745H372.762L373.188 39.0074H381.9ZM377.086 24.5177H385.191L384.636 26.573H376.531L377.086 24.5177ZM375.137 31.7754H383.242L383.087 32.3791C382.842 33.2655 382.248 33.6765 381.28 33.6765H374.634L375.15 31.7754H375.137Z" fill="url(#paint24_linear_600_2018)"/>
</g>
<defs>
<linearGradient id="paint0_linear_600_2018" x1="21.7203" y1="11.5926" x2="21.7203" y2="86.1313" gradientUnits="userSpaceOnUse">
<stop stop-color="white"/>
<stop offset="1" stop-color="#FFFF00"/>
</linearGradient>
<linearGradient id="paint1_linear_600_2018" x1="69.7815" y1="39.5478" x2="69.7815" y2="64.8704" gradientUnits="userSpaceOnUse">
<stop stop-color="white"/>
<stop offset="1" stop-color="#FFFF00"/>
</linearGradient>
<linearGradient id="paint2_linear_600_2018" x1="62.0062" y1="23.8175" x2="62.0062" y2="78.7947" gradientUnits="userSpaceOnUse">
<stop stop-color="white"/>
<stop offset="1" stop-color="#FFFF00"/>
</linearGradient>
<linearGradient id="paint3_linear_600_2018" x1="54.1088" y1="22.6551" x2="54.1088" y2="47.9553" gradientUnits="userSpaceOnUse">
<stop stop-color="white"/>
<stop offset="1" stop-color="#FFFF00"/>
</linearGradient>
<linearGradient id="paint4_linear_600_2018" x1="116.902" y1="21.6221" x2="116.902" y2="84.415" gradientUnits="userSpaceOnUse">
<stop stop-color="white"/>
<stop offset="1" stop-color="#FFFF00"/>
</linearGradient>
<linearGradient id="paint5_linear_600_2018" x1="105.848" y1="48.0207" x2="105.848" y2="61.2179" gradientUnits="userSpaceOnUse">
<stop stop-color="white"/>
<stop offset="1" stop-color="#FFFF00"/>
</linearGradient>
<linearGradient id="paint6_linear_600_2018" x1="97.4783" y1="21.7675" x2="97.4783" y2="83.6895" gradientUnits="userSpaceOnUse">
<stop stop-color="white"/>
<stop offset="1" stop-color="#FFFF00"/>
</linearGradient>
<linearGradient id="paint7_linear_600_2018" x1="139.494" y1="43.5177" x2="139.494" y2="53.611" gradientUnits="userSpaceOnUse">
<stop stop-color="white"/>
<stop offset="1" stop-color="#FFFF00"/>
</linearGradient>
<linearGradient id="paint8_linear_600_2018" x1="150.057" y1="31.4781" x2="150.057" y2="75.8708" gradientUnits="userSpaceOnUse">
<stop stop-color="white"/>
<stop offset="1" stop-color="#FFFF00"/>
</linearGradient>
<linearGradient id="paint9_linear_600_2018" x1="160.756" y1="43.5097" x2="160.756" y2="53.402" gradientUnits="userSpaceOnUse">
<stop stop-color="white"/>
<stop offset="1" stop-color="#FFFF00"/>
</linearGradient>
<linearGradient id="paint10_linear_600_2018" x1="155.123" y1="19.9873" x2="155.123" y2="36.9584" gradientUnits="userSpaceOnUse">
<stop stop-color="white"/>
<stop offset="1" stop-color="#FFFF00"/>
</linearGradient>
<linearGradient id="paint11_linear_600_2018" x1="195.764" y1="21.779" x2="195.764" y2="83.9913" gradientUnits="userSpaceOnUse">
<stop stop-color="white"/>
<stop offset="1" stop-color="#FFFF00"/>
</linearGradient>
<linearGradient id="paint12_linear_600_2018" x1="195.776" y1="29.0117" x2="195.776" y2="63.0208" gradientUnits="userSpaceOnUse">
<stop stop-color="white"/>
<stop offset="1" stop-color="#FFFF00"/>
</linearGradient>
<linearGradient id="paint13_linear_600_2018" x1="242.522" y1="51.1312" x2="242.522" y2="58.8575" gradientUnits="userSpaceOnUse">
<stop stop-color="white"/>
<stop offset="1" stop-color="#FFFF00"/>
</linearGradient>
<linearGradient id="paint14_linear_600_2018" x1="245.929" y1="34.206" x2="245.929" y2="63.7937" gradientUnits="userSpaceOnUse">
<stop stop-color="white"/>
<stop offset="1" stop-color="#FFFF00"/>
</linearGradient>
<linearGradient id="paint15_linear_600_2018" x1="249.781" y1="19.4854" x2="249.781" y2="43.2449" gradientUnits="userSpaceOnUse">
<stop stop-color="white"/>
<stop offset="1" stop-color="#FFFF00"/>
</linearGradient>
<linearGradient id="paint16_linear_600_2018" x1="229.068" y1="21.4916" x2="229.068" y2="84.5524" gradientUnits="userSpaceOnUse">
<stop stop-color="white"/>
<stop offset="1" stop-color="#FFFF00"/>
</linearGradient>
<linearGradient id="paint17_linear_600_2018" x1="292.752" y1="46.4605" x2="292.752" y2="63.7218" gradientUnits="userSpaceOnUse">
<stop stop-color="white"/>
<stop offset="1" stop-color="#FFFF00"/>
</linearGradient>
<linearGradient id="paint18_linear_600_2018" x1="266.108" y1="46.484" x2="266.108" y2="64.0133" gradientUnits="userSpaceOnUse">
<stop stop-color="white"/>
<stop offset="1" stop-color="#FFFF00"/>
</linearGradient>
<linearGradient id="paint19_linear_600_2018" x1="284.473" y1="20.454" x2="284.473" y2="65.4272" gradientUnits="userSpaceOnUse">
<stop stop-color="white"/>
<stop offset="1" stop-color="#FFFF00"/>
</linearGradient>
<linearGradient id="paint20_linear_600_2018" x1="275.929" y1="46.4516" x2="275.929" y2="63.4897" gradientUnits="userSpaceOnUse">
<stop stop-color="white"/>
<stop offset="1" stop-color="#FFFF00"/>
</linearGradient>
<linearGradient id="paint21_linear_600_2018" x1="284.447" y1="46.4605" x2="284.447" y2="63.7218" gradientUnits="userSpaceOnUse">
<stop stop-color="white"/>
<stop offset="1" stop-color="#FFFF00"/>
</linearGradient>
<linearGradient id="paint22_linear_600_2018" x1="323.771" y1="21.4801" x2="323.771" y2="84.2507" gradientUnits="userSpaceOnUse">
<stop stop-color="white"/>
<stop offset="1" stop-color="#FFFF00"/>
</linearGradient>
<linearGradient id="paint23_linear_600_2018" x1="359.082" y1="21.8011" x2="359.082" y2="84.5717" gradientUnits="userSpaceOnUse">
<stop stop-color="white"/>
<stop offset="1" stop-color="#FFFF00"/>
</linearGradient>
<linearGradient id="paint24_linear_600_2018" x1="378.246" y1="21.6471" x2="378.246" y2="84.4176" gradientUnits="userSpaceOnUse">
<stop stop-color="white"/>
<stop offset="1" stop-color="#FFFF00"/>
</linearGradient>
<clipPath id="clip0_600_2018">
<rect width="400" height="66" fill="white"/>
</clipPath>
</defs>
</svg>
