<svg width="209" height="67" viewBox="0 0 209 67" fill="none" xmlns="http://www.w3.org/2000/svg">
<path d="M94.214 41.299L101.04 26.6049C101.204 26.2605 101.335 25.8997 101.434 25.5389L103.862 16.4863C104.387 14.5183 103.977 12.4192 102.73 10.7956C102.09 9.95921 101.253 9.30322 100.301 8.86043C100.105 7.90925 99.6943 6.99087 99.0872 6.18728C97.8402 4.56372 95.9204 3.61253 93.8858 3.61253H81.0383C78.0684 3.61253 75.4595 5.6133 74.7048 8.46684L73.507 12.9276C73.3921 12.7964 73.2773 12.6652 73.1788 12.5504C72.7522 12.0912 72.2764 11.6648 71.7841 11.2876C71.1442 9.91001 70.3402 8.81123 69.5362 7.95845C66.6812 4.89171 62.4971 3.33374 57.0989 3.33374H36.8677C31.9453 3.33374 27.6463 4.72771 24.135 7.48286C20.4268 10.2872 17.8507 14.2559 16.5052 19.307L11.2382 38.839C9.76152 44.3493 10.2374 48.974 12.6822 52.5656C13.3385 53.5988 14.2409 54.6975 15.4551 55.6651C15.7177 56.1899 15.9966 56.6819 16.3248 57.1575C18.0968 59.9782 21.6902 63.2582 28.7785 63.2582H50.8146C55.7206 63.2582 60.0687 61.6018 63.7278 58.3219C63.7606 58.3055 63.777 58.2727 63.8098 58.2563C64.3513 57.7643 64.8435 57.2231 65.3357 56.6819C65.8608 57.1739 66.4187 57.6003 67.0586 57.8955C67.2555 58.8466 67.6657 59.765 68.2728 60.5686C69.5198 62.1922 71.4396 63.127 73.4742 63.127H86.3217C89.2916 63.127 91.9005 61.1262 92.6552 58.2727L95.5923 47.2849C96.1173 45.3169 95.7071 43.2178 94.4601 41.5942C94.3781 41.4958 94.296 41.381 94.214 41.2826V41.299Z" fill="#231815"/>
<path d="M196.256 17.7326C195.616 16.8962 194.779 16.2403 193.828 15.7975C193.631 14.8463 193.22 13.9279 192.613 13.1243C191.366 11.5008 189.447 10.5496 187.412 10.5496H181.325C179.749 10.5496 178.273 11.1072 177.124 12.0747H153.726C152.807 12.0747 151.921 12.2879 151.117 12.6487C149.887 11.3368 148.197 10.566 146.375 10.566H141.158C139.582 10.566 138.106 11.1236 136.957 12.0911H130.935C130.295 12.0911 129.672 12.1895 129.081 12.3535H128.884C127.67 11.14 126.013 10.4512 124.257 10.4512H118.744C116.972 10.4512 115.331 11.1728 114.117 12.3535H112.607C109.638 12.3535 107.045 14.3543 106.274 17.2078L105.109 21.5374C104.945 22.1605 104.863 22.8001 104.896 23.4397C104.223 24.1941 103.698 25.1125 103.435 26.1293L102.205 30.7376C102.073 31.246 101.991 31.7544 101.975 32.2791C101.893 32.4923 101.827 32.7219 101.762 32.9515L100.482 37.7074C100.137 39.003 100.203 40.3478 100.63 41.5942C99.3661 42.4633 98.398 43.7589 97.9878 45.3169L96.9213 49.302C96.3962 51.27 96.8064 53.3691 98.0535 54.9927C98.6934 55.8291 99.5302 56.4851 100.465 56.9279C100.662 57.879 101.073 58.7974 101.68 59.601C102.927 61.2246 104.846 62.1594 106.881 62.1594H108.965C109.556 62.1594 110.13 62.1102 110.688 62.0282C111.607 62.5037 112.64 62.7661 113.707 62.7661H118.76C119.942 62.7661 121.074 62.4545 122.042 61.897C122.961 62.3726 123.978 62.6185 125.045 62.6185H127.326C128.769 62.6185 130.131 62.389 131.395 61.9626C132.281 62.389 133.249 62.6185 134.25 62.6185H139.468C140.764 62.6185 141.978 62.225 143.012 61.5526C144.209 62.6677 145.785 63.3401 147.458 63.3401H149.936C155.137 63.3401 159.239 60.3718 161.241 55.3207H178.305C184.819 55.3207 189.676 51.68 191.317 45.5957L194.336 34.2963C194.648 33.1483 194.632 31.9676 194.336 30.8524C195.386 29.5732 196.174 28.048 196.633 26.3097L197.405 23.4233C197.93 21.4554 197.519 19.3562 196.272 17.7326H196.256Z" fill="#231815"/>
<path d="M57.066 9.92631H36.8348C33.3727 9.92631 30.4521 10.8611 28.0893 12.7143C25.5132 14.6494 23.7576 17.4374 22.7895 21.0289L17.5717 40.5281C16.6036 44.1196 16.7677 46.9896 18.1624 48.9739C19.4587 51.1059 21.7886 52.1063 25.1194 52.1063H47.1555C50.4207 52.1063 53.2429 51.0403 55.6877 48.8428C57.9849 46.7108 59.7077 43.7917 60.7086 40.0525L65.8936 20.6845C66.8616 17.093 66.4679 14.2886 64.7122 12.4355C63.1534 10.7791 60.5938 9.90991 57.066 9.90991V9.92631ZM47.7462 41.0037H30.0419L35.4401 20.8485H53.1445L47.7462 41.0037Z" fill="url(#paint0_linear_600_2113)"/>
<path d="M69.8314 51.975H82.679L85.616 41.0037H72.7685L69.8314 51.975Z" fill="url(#paint1_linear_600_2113)"/>
<path d="M78.5769 19.3069L77.1823 38.2158H82.6297L91.4409 19.2413L93.8693 10.1887H81.0217L78.5769 19.3069Z" fill="url(#paint2_linear_600_2113)"/>
<path d="M129.688 18.9133H123.749L124.257 17.011H118.744L118.235 18.9133H112.607L111.443 23.2593H128.523L129.688 18.9133Z" fill="url(#paint3_linear_600_2113)"/>
<path d="M135.169 23.4068H140.075C143.11 23.4068 144.997 22.1932 145.67 19.684L146.359 17.1421H141.141C140.862 18.1753 140.272 18.6673 139.402 18.6673H130.919L123.519 46.2679C123.437 46.5795 123.289 46.7271 123.059 46.7271H122.83C122.255 46.7271 122.026 46.3499 122.075 45.5463V41.0528H117.957L118.4 39.4129H124.339L125.619 34.6569H119.679L120.27 32.4594H126.357L127.588 27.8511H125.307L127.67 24.1284H122.797L120.385 27.8511H117.153L117.12 24.1284H112.066L112.099 27.8511H109.736L108.505 32.4594H115.2L114.609 34.6569H108.062L106.783 39.4129H113.329L112.886 41.0528H108.44L105.897 45.9891C105.486 46.6779 105.093 47.0223 104.748 47.0223H104.289L103.222 51.0074H105.306C107.094 51.0074 108.473 50.1382 109.375 48.4163L112.542 42.25L110.031 51.5978H115.085L117.448 42.7748L117.399 48.4819C117.349 49.925 118.022 50.6794 119.466 50.6794H121.55L121.353 51.4338H123.634C126.259 51.4338 127.965 50.0234 128.704 47.2519L132.806 31.9674H135.776L130.558 51.4338H135.776L140.993 31.9674H142.47L143.75 27.2115H134.086L135.119 23.374L135.169 23.4068Z" fill="url(#paint4_linear_600_2113)"/>
<path d="M181.325 17.1257C181.046 18.1589 180.34 18.6509 179.274 18.6509H153.71L146.425 45.7924C146.31 46.2188 146.113 46.3992 145.801 46.3992H145.342L143.783 52.1718H146.26C149.083 52.1718 150.937 50.4991 151.823 47.1535L152.627 44.1524H174.614C178.191 44.1524 180.406 42.5616 181.275 39.2817L184.294 27.9823H156.942L157.976 24.112H180.11C183.687 24.112 185.837 22.7508 186.575 20.0121L187.346 17.1257H181.259H181.325ZM176.944 33.4762L175.861 37.5105C175.647 38.3141 175.057 38.6913 174.056 38.6913H154.12L155.515 33.4762H176.927H176.944Z" fill="url(#paint5_linear_600_2113)"/>
<defs>
<linearGradient id="paint0_linear_600_2113" x1="41.684" y1="12.815" x2="41.684" y2="86.1684" gradientUnits="userSpaceOnUse">
<stop stop-color="white"/>
<stop offset="1" stop-color="#FFFF00"/>
</linearGradient>
<linearGradient id="paint1_linear_600_2113" x1="77.7237" y1="41.759" x2="77.7237" y2="60.8315" gradientUnits="userSpaceOnUse">
<stop stop-color="white"/>
<stop offset="1" stop-color="#FFFF00"/>
</linearGradient>
<linearGradient id="paint2_linear_600_2113" x1="85.5258" y1="12.1183" x2="85.5258" y2="60.84" gradientUnits="userSpaceOnUse">
<stop stop-color="white"/>
<stop offset="1" stop-color="#FFFF00"/>
</linearGradient>
<linearGradient id="paint3_linear_600_2113" x1="120.565" y1="17.4412" x2="120.565" y2="28.3031" gradientUnits="userSpaceOnUse">
<stop stop-color="white"/>
<stop offset="1" stop-color="#FFFF00"/>
</linearGradient>
<linearGradient id="paint4_linear_600_2113" x1="124.79" y1="19.5143" x2="124.79" y2="79.4115" gradientUnits="userSpaceOnUse">
<stop stop-color="white"/>
<stop offset="1" stop-color="#FFFF00"/>
</linearGradient>
<linearGradient id="paint5_linear_600_2113" x1="165.565" y1="19.5385" x2="165.565" y2="80.4621" gradientUnits="userSpaceOnUse">
<stop stop-color="white"/>
<stop offset="1" stop-color="#FFFF00"/>
</linearGradient>
</defs>
</svg>
