<svg width="262" height="48" viewBox="0 0 262 48" fill="none" xmlns="http://www.w3.org/2000/svg">
<g clip-path="url(#clip0_600_2049)">
<path d="M260.995 8.0568C260.713 7.67951 260.357 7.37525 259.989 7.10751C259.879 6.26775 259.572 5.45233 259.045 4.77079C258.113 3.56592 256.678 2.86004 255.158 2.86004H254.005C253.895 2.66531 253.772 2.47059 253.637 2.28803C252.717 1.03448 251.246 0.30426 249.689 0.30426H244.722C244.305 0.30426 243.901 0.352941 243.508 0.450304C243.116 0.352941 242.711 0.30426 242.294 0.30426H237.021C235.979 0.30426 234.986 0.63286 234.152 1.21704H221.595C220.32 1.21704 219.155 1.71602 218.26 2.53144C217.34 1.32657 215.893 0.608519 214.36 0.608519H208.474C207.371 0.608519 206.304 0.973631 205.458 1.643H191.528C190.841 1.643 190.179 1.78905 189.59 2.04462C188.744 1.33874 187.64 0.924949 186.451 0.924949H179.976C178.652 0.924949 177.389 1.46045 176.457 2.39757C176.31 2.54361 176.187 2.72617 176.065 2.88438C175.157 2.03245 173.98 1.53347 172.717 1.53347H162.564C161.644 0.559838 160.356 0 158.995 0H152.95C151.564 0 150.289 0.572008 149.382 1.53347H138.407C137.426 1.53347 136.518 1.83773 135.746 2.33671C135.684 2.25152 135.648 2.15416 135.586 2.06897C134.654 0.864097 133.22 0.158215 131.699 0.158215H100.393C98.5904 0.158215 96.9349 1.13185 96.0766 2.70183L94.323 5.91481C94.1146 5.69574 93.9061 5.50101 93.6609 5.31846C93.5505 4.4787 93.2439 3.66329 92.7167 2.98174C91.7847 1.77688 90.35 1.07099 88.8295 1.07099H71.3922C70.681 0.681542 69.8594 0.462475 69.0133 0.462475H62.085C60.6503 0.462475 59.2769 1.08316 58.3449 2.1785L57.7441 2.87221H56.3094C55.169 2.87221 54.1021 3.27383 53.256 3.94321C53.0843 3.44422 52.8636 2.9574 52.5325 2.53144C51.6006 1.32657 50.1659 0.62069 48.6453 0.62069H14.2981C12.0786 0.62069 10.1289 2.10548 9.56482 4.22312L8.27726 9.00609C8.00749 9.97972 8.0688 11.0142 8.41215 11.9391L4.6721 25.789C3.93635 26.3976 3.38454 27.213 3.1025 28.1744C2.82046 29.1237 2.85725 30.0974 3.13929 30.998C2.36675 31.6308 1.77815 32.4949 1.50838 33.5051L0.171768 38.4341C-0.220631 39.8945 0.0859306 41.4523 1.01788 42.6572C1.29992 43.0345 1.65553 43.3387 2.0234 43.6065C2.13376 44.4463 2.44033 45.2617 2.96761 45.9554C3.89956 47.1602 5.33427 47.854 6.85482 47.854H15.9045C17.9278 47.854 19.7549 47.2333 21.3123 46.0041C21.3491 45.9675 21.3981 45.9432 21.4349 45.9067L21.8273 46.1379C23.4459 47.1724 25.3957 47.7079 27.6274 47.7079H41.484C42.7839 47.7079 43.9733 47.1968 44.8685 46.3448C45.7882 47.2941 47.0389 47.854 48.3755 47.854H75.0219C79.1789 47.854 82.5878 45.931 84.6479 42.4016L84.8074 42.1095C84.8932 42.2434 84.9545 42.3773 85.0403 42.5112C85.3224 42.8884 85.678 43.1927 86.0459 43.4604C86.1562 44.3002 86.4628 45.1156 86.9901 45.8093C87.922 47.0142 89.3567 47.7079 90.8773 47.7079H96.4199C96.5548 47.7079 96.6774 47.7079 96.8001 47.6957C96.9227 47.6957 97.0576 47.7079 97.1802 47.7079H104.072C105.764 47.7079 107.37 47.4523 108.744 46.9777L110.24 46.503L111.294 46.8925C112.655 47.4402 114.188 47.7079 115.966 47.7079H124.243C125.641 47.7079 126.917 47.1237 127.824 46.1623C128.732 47.0385 129.933 47.5497 131.221 47.5497H134.066C135.819 47.5497 137.438 47.1359 138.811 46.3448C140.454 47.4523 142.662 48 145.372 48H157.585C158.554 48 159.474 47.7201 160.258 47.2211C161.006 47.428 161.816 47.5497 162.674 47.5497H165.985C167.285 47.5497 168.474 47.0385 169.369 46.1866C170.289 47.1359 171.54 47.6957 172.876 47.6957H176.187C178.1 47.6957 179.842 47.2576 181.374 46.4179C182.245 47.1359 183.349 47.5375 184.514 47.5375H201.338C204.599 47.5375 207.334 46.4544 209.247 44.5314C209.419 44.9696 209.627 45.4077 209.921 45.785C210.853 46.9899 212.288 47.6957 213.809 47.6957H234.299C234.373 47.6957 234.446 47.6957 234.508 47.6957C234.581 47.6957 234.655 47.6957 234.716 47.6957H237.291C238.101 47.6957 238.885 47.574 239.658 47.3428C240.234 47.574 240.847 47.6957 241.485 47.6957H243.606C249.063 47.6957 252.963 44.787 254.336 39.7363L261.743 12.2921C262.135 10.8316 261.828 9.27383 260.896 8.06897L260.995 8.0568Z" fill="#231815"/>
<path d="M33.0353 10.2598H47.3211L48.6087 5.47681H14.2983L13.0107 10.2598H26.8796L26.524 11.5985H13.587L9.0622 28.345H20.5399L18.6147 30.061L17.4497 29.5255H7.82369L14.5435 33.7243L13.9304 34.2963C13.4767 34.564 13.0475 34.7222 12.7287 34.7588H6.25409L4.91748 39.6878H13.9672C14.8869 39.6878 15.6594 39.42 16.3461 38.8845L19.0806 36.5965L22.5509 38.7385C23.3725 39.274 24.4148 39.5417 25.7269 39.5417H39.5835L40.9201 34.6127H31.1346C29.5528 34.6127 28.1917 34.3815 27.1003 33.846L24.0102 32.4707L27.4436 29.5985C27.7747 29.2212 28.0322 28.8318 28.1303 28.491L28.1671 28.3328H37.0206C39.9023 28.3328 41.7294 26.9941 42.4652 24.2801L45.8864 11.5863H32.6797L33.0353 10.2476V10.2598ZM23.2744 23.562H16.1867L16.6281 21.919H23.7159L23.2744 23.562ZM24.8563 17.708H17.7686L18.1242 16.3693H25.2119L24.8563 17.708ZM35.5982 23.562H29.4424L29.8839 21.919H37.2414C36.9471 23.0265 36.3707 23.562 35.5982 23.562ZM38.7374 16.3815L38.3818 17.7202H31.0243L31.3799 16.3815H38.7374Z" fill="url(#paint0_linear_600_2049)"/>
<path d="M63.8509 22.0649H57.1065L55.4143 23.9027C55.0832 24.28 54.654 24.4382 54.1881 24.4382H50.7178L49.3444 29.5254H55.353C56.3953 29.5254 57.315 29.2576 58.1734 28.6491H76.236L73.5873 33.4686C73.3053 33.9311 72.9006 34.1623 72.3243 34.1623H65.9723L64.746 30.4138H57.8545L59.0808 34.1623H47.9465L46.4504 39.6998H73.0968C75.5248 39.6998 77.2906 38.7019 78.4432 36.7181L83.2011 28.3449L84.5377 23.4159H62.7473L63.8386 22.0771L63.8509 22.0649Z" fill="url(#paint1_linear_600_2049)"/>
<path d="M68.9767 5.33074H62.0484L60.4788 7.16847C60.1477 7.54575 59.7798 7.74047 59.3261 7.74047H56.285L54.9484 12.6695H60.6873C62.0361 12.6695 63.2133 12.1705 64.1698 11.1725H80.6506L78.2226 15.4565C77.9896 15.8825 77.5972 16.065 77.0577 16.065H71.3188L70.1171 12.8155H63.336L64.5377 16.065H53.759L52.2629 21.6025H77.8302C80.1355 21.6025 81.8645 20.6533 82.9559 18.7303L87.5053 10.6979L88.7929 5.91492H68.4617L68.9767 5.3064V5.33074Z" fill="url(#paint2_linear_600_2049)"/>
<path d="M112.312 23.2576H107.493L106.365 27.4198C106.034 28.6369 106.806 29.2211 108.732 29.2211H118.517L119.363 26.0811H112.435C111.822 26.0811 111.601 25.8864 111.699 25.5091L112.312 23.2576Z" fill="url(#paint3_linear_600_2049)"/>
<path d="M113.404 23.0993L113.048 24.4381C112.827 25.2413 113.416 25.6186 114.838 25.6186H118.149L118.713 23.5496H117.487C116.984 23.5496 116.8 23.4036 116.874 23.0872H113.404V23.0993Z" fill="url(#paint4_linear_600_2049)"/>
<path d="M124.195 25.0468L123.937 24.134H119.277L120.05 27.846C120.283 28.6858 120.724 29.063 121.411 29.063H125.028L126.034 25.3511H124.685C124.379 25.3511 124.207 25.278 124.195 25.0468Z" fill="url(#paint5_linear_600_2049)"/>
<path d="M118.652 9.22511L119.167 8.45838H130.755L131.687 5.01416H100.381L97.0332 11.1359C96.5795 11.9756 96.1626 12.3529 95.856 12.3529H94.9363L93.4526 17.8539H94.8382L88.989 39.5294H94.5316L101.619 13.2657L105.016 7.37522L104.722 8.44621H112.962L112.447 9.21294H104.673L101.852 19.643H100.81L99.6451 23.9635H101.767L101.006 24.9127C100.773 25.217 100.54 25.3387 100.32 25.3387H99.2772L98.2717 29.0507H101.117C102.085 29.0507 102.882 28.6247 103.557 27.7119L106.598 23.6957H104.636L104.93 22.6247H121.644L121.35 23.6957H126.316L127.407 19.643H126.218L129.038 9.21294H118.64L118.652 9.22511ZM121.252 19.6673H106.806L107.003 18.9371H121.448L121.252 19.6673ZM122.147 16.3813H107.702L107.935 15.505H122.38L122.147 16.3813ZM123.079 12.9371H108.633L108.83 12.2069H123.275L123.079 12.9371Z" fill="url(#paint6_linear_600_2049)"/>
<path d="M107.199 29.3672H102.232L100.602 30.8641C100.246 31.1684 99.8291 31.3266 99.2895 31.3266H97.7935L96.7512 35.1846H100.221C100.369 35.1846 100.565 35.1846 100.773 35.1481L103.361 36.1096C102.882 36.1826 102.282 36.2678 101.583 36.2678H96.1871L95.3042 39.5538H102.196C103.422 39.5538 104.477 39.3591 105.372 39.0548L108.486 38.0568L111.245 39.0913C112.006 39.3956 112.938 39.5538 114.09 39.5538H122.367L123.25 36.2678H118.125C116.935 36.2678 115.844 36.1583 114.887 36L123.434 33.2861L124.366 29.8418H106.806L107.199 29.3794V29.3672ZM114.728 33.2739L108.817 34.7587L105.175 33.9919H103.14C103.238 33.9189 103.299 33.8337 103.397 33.7242L103.79 33.2617H114.728V33.2739Z" fill="url(#paint7_linear_600_2049)"/>
<path d="M144.918 34.6125L145.973 30.718H140.124L138.787 35.647C138.039 38.434 139.572 39.858 143.508 39.858H155.721L156.862 35.647H146.157C145.151 35.647 144.747 35.3063 144.93 34.6125H144.918Z" fill="url(#paint8_linear_600_2049)"/>
<path d="M167.984 21.6147L170.804 11.1846H157.291L157.536 10.2719H171.675L172.717 6.41384H158.591L159.008 4.88037H152.962L152.545 6.41384H138.419L137.377 10.2719H151.515L151.27 11.1846H137.597L134.017 24.4504H147.689L147.407 25.5213H133.122L131.993 29.6836H161.803C163.263 29.6836 164.526 29.3063 165.556 28.4544C166.635 27.6147 167.53 26.1177 168.303 23.9879H165.764C166.954 23.5619 167.714 22.7587 168.021 21.6147H167.984ZM148.695 20.5802H141.031L141.276 19.6674H148.94L148.695 20.5802ZM149.946 15.9554H142.282L142.527 15.0426H150.191L149.946 15.9554ZM160.467 25.5092H153.416L153.71 24.4382H162.368C161.791 25.1684 161.154 25.5092 160.467 25.5092ZM160.749 20.5802H154.74L154.986 19.6674H162.49C162.331 20.2759 161.742 20.5802 160.737 20.5802H160.749ZM163.508 15.9554H156.003L156.249 15.0426H163.753L163.508 15.9554Z" fill="url(#paint9_linear_600_2049)"/>
<path d="M164.023 33.992L163.827 30.8521H157.659L158.149 37.3145C158.272 38.6898 159.167 39.3835 160.786 39.3835H164.097L165.384 34.6005H164.465C164.158 34.6005 164.011 34.4058 164.011 33.992H164.023Z" fill="url(#paint10_linear_600_2049)"/>
<path d="M133.637 31.3267L132.165 34.1989C131.908 34.5762 131.662 34.7709 131.515 34.7709H130.595L129.345 39.3956H132.19C133.919 39.3956 135.194 38.6654 136.028 37.2901L139.339 31.3267H133.637Z" fill="url(#paint11_linear_600_2049)"/>
<path d="M152.668 30.4018L152.742 30.134H147.469L146.831 32.5073C146.451 33.919 147.297 34.6127 149.419 34.6127H156.2L157.132 31.1685H153.661C152.852 31.1685 152.533 30.9373 152.68 30.4018H152.668Z" fill="url(#paint12_linear_600_2049)"/>
<path d="M183.067 15.9554H186.991L188.364 10.8682H187.591C186.782 10.8682 186.414 10.3692 186.488 9.37127L186.414 5.78101H179.94L180.124 12.925C180.075 14.9575 181.043 15.9433 183.042 15.9433L183.067 15.9554Z" fill="url(#paint13_linear_600_2049)"/>
<path d="M180.013 26.8478H184.06L185.433 21.7606H184.55C183.704 21.7606 183.336 21.2616 183.447 20.2758L183.385 16.5273H176.911L177.046 23.8661C177.009 25.8499 178.015 26.8478 180.013 26.8478Z" fill="url(#paint14_linear_600_2049)"/>
<path d="M177.377 28.1868L174.667 33.3835C174.201 34.1137 173.796 34.4545 173.416 34.4545H172.374L171 39.5417H174.311C176.543 39.5417 178.235 38.5438 179.339 36.5965L183.839 28.1868H177.365H177.377Z" fill="url(#paint15_linear_600_2049)"/>
<path d="M210.669 20.276L212.202 14.5803H203.459L204.268 11.5985H207.273C208.891 11.5985 210.277 11.1847 211.405 10.2963C212.582 9.3835 213.551 7.77701 214.36 5.47681H208.474C207.91 6.17052 207.15 6.51129 206.267 6.51129H191.515L190.142 11.5985H197.806L196.997 14.5803H187.837L186.304 20.276H195.464L194.581 23.562H186.917L182.65 39.3835H199.474C202.552 39.3835 204.489 38.0813 205.188 35.489L208.413 23.562H201.056L201.939 20.276H210.682H210.669ZM199.695 32.9575C199.449 33.8703 198.75 34.2963 197.683 34.2963H190.179L191.699 28.6371H200.859L199.695 32.9575Z" fill="url(#paint16_linear_600_2049)"/>
<path d="M248.867 7.74035L249.676 5.18457H244.71L243.938 7.74035H242.049L240.713 12.6694H242.405L236.421 32.2759C235.955 33.8458 235.489 34.6126 234.949 34.6126H234.177L232.84 39.5416H235.415C236.421 39.5416 237.439 39.0426 238.481 38.0568C239.388 37.144 240.124 35.8053 240.725 33.8945L247.334 12.6815H248.524L242.846 33.6998C242.65 34.43 242.098 34.7708 241.203 34.7708H240.897L239.609 39.5537H241.73C244.931 39.5537 246.942 38.1055 247.714 35.1967L255.121 7.75252H248.843L248.867 7.74035Z" fill="url(#paint17_linear_600_2049)"/>
<path d="M225.973 35.4888L226.206 34.6126H233.294L234.348 30.718H227.261L227.457 29.9878H231.234C233.625 29.9878 235.096 29.075 235.611 27.1643L238.677 15.8093H231.283L231.528 14.8965H239.499L240.578 10.8803H232.607L232.852 9.96753H236.163C237.622 9.96753 238.824 9.66327 239.781 8.96956C240.774 8.27585 241.62 7.0223 242.27 5.18457H236.997C236.482 5.79309 235.82 6.09735 234.974 6.09735H221.571L220.529 9.95536H227.886L227.641 10.8681H219.977L218.898 14.8844H226.562L226.316 15.7971H219.118L215.292 29.9756H222.491L222.294 30.7059H214.79L213.735 34.6004H221.24L221.007 35.4767H213.036L211.945 39.5294H232.435L233.527 35.4767H225.985L225.973 35.4888ZM230.24 19.6673H232.828L232.472 21.0061H229.897L230.253 19.6673H230.24ZM228.867 24.7424H231.454L231.332 25.2049C231.172 25.8134 230.67 26.0811 229.86 26.0811H228.511L228.867 24.7424ZM223.545 26.0811H221.154L221.51 24.7424H223.901L223.545 26.0811ZM224.919 20.9939H222.527L222.883 19.6552H225.274L224.919 20.9939Z" fill="url(#paint18_linear_600_2049)"/>
</g>
<defs>
<linearGradient id="paint0_linear_600_2049" x1="26.7631" y1="7.83212" x2="26.7631" y2="67.3038" gradientUnits="userSpaceOnUse">
<stop stop-color="white"/>
<stop offset="1" stop-color="#FFFF00"/>
</linearGradient>
<linearGradient id="paint1_linear_600_2049" x1="65.4941" y1="23.279" x2="65.4941" y2="53.9352" gradientUnits="userSpaceOnUse">
<stop stop-color="white"/>
<stop offset="1" stop-color="#FFFF00"/>
</linearGradient>
<linearGradient id="paint2_linear_600_2049" x1="70.5279" y1="6.42833" x2="70.5279" y2="34.7573" gradientUnits="userSpaceOnUse">
<stop stop-color="white"/>
<stop offset="1" stop-color="#FFFF00"/>
</linearGradient>
<linearGradient id="paint3_linear_600_2049" x1="112.827" y1="23.6681" x2="112.827" y2="34.035" gradientUnits="userSpaceOnUse">
<stop stop-color="white"/>
<stop offset="1" stop-color="#FFFF00"/>
</linearGradient>
<linearGradient id="paint4_linear_600_2049" x1="115.858" y1="23.2614" x2="115.858" y2="27.6621" gradientUnits="userSpaceOnUse">
<stop stop-color="white"/>
<stop offset="1" stop-color="#FFFF00"/>
</linearGradient>
<linearGradient id="paint5_linear_600_2049" x1="122.656" y1="24.4734" x2="122.656" y2="33.0419" gradientUnits="userSpaceOnUse">
<stop stop-color="white"/>
<stop offset="1" stop-color="#FFFF00"/>
</linearGradient>
<linearGradient id="paint6_linear_600_2049" x1="110.338" y1="7.39042" x2="110.338" y2="67.3911" gradientUnits="userSpaceOnUse">
<stop stop-color="white"/>
<stop offset="1" stop-color="#FFFF00"/>
</linearGradient>
<linearGradient id="paint7_linear_600_2049" x1="109.835" y1="30.0685" x2="109.835" y2="47.7767" gradientUnits="userSpaceOnUse">
<stop stop-color="white"/>
<stop offset="1" stop-color="#FFFF00"/>
</linearGradient>
<linearGradient id="paint8_linear_600_2049" x1="147.733" y1="31.3473" x2="147.733" y2="47.236" gradientUnits="userSpaceOnUse">
<stop stop-color="white"/>
<stop offset="1" stop-color="#FFFF00"/>
</linearGradient>
<linearGradient id="paint9_linear_600_2049" x1="152.355" y1="6.588" x2="152.355" y2="49.7055" gradientUnits="userSpaceOnUse">
<stop stop-color="white"/>
<stop offset="1" stop-color="#FFFF00"/>
</linearGradient>
<linearGradient id="paint10_linear_600_2049" x1="161.522" y1="31.4394" x2="161.522" y2="46.2703" gradientUnits="userSpaceOnUse">
<stop stop-color="white"/>
<stop offset="1" stop-color="#FFFF00"/>
</linearGradient>
<linearGradient id="paint11_linear_600_2049" x1="134.342" y1="31.8822" x2="134.342" y2="45.9091" gradientUnits="userSpaceOnUse">
<stop stop-color="white"/>
<stop offset="1" stop-color="#FFFF00"/>
</linearGradient>
<linearGradient id="paint12_linear_600_2049" x1="151.937" y1="30.4424" x2="151.937" y2="38.2281" gradientUnits="userSpaceOnUse">
<stop stop-color="white"/>
<stop offset="1" stop-color="#FFFF00"/>
</linearGradient>
<linearGradient id="paint13_linear_600_2049" x1="184.152" y1="6.48148" x2="184.152" y2="24.1686" gradientUnits="userSpaceOnUse">
<stop stop-color="white"/>
<stop offset="1" stop-color="#FFFF00"/>
</linearGradient>
<linearGradient id="paint14_linear_600_2049" x1="181.172" y1="17.2379" x2="181.172" y2="35.1788" gradientUnits="userSpaceOnUse">
<stop stop-color="white"/>
<stop offset="1" stop-color="#FFFF00"/>
</linearGradient>
<linearGradient id="paint15_linear_600_2049" x1="177.42" y1="28.9685" x2="177.42" y2="48.7078" gradientUnits="userSpaceOnUse">
<stop stop-color="white"/>
<stop offset="1" stop-color="#FFFF00"/>
</linearGradient>
<linearGradient id="paint16_linear_600_2049" x1="198.505" y1="7.81117" x2="198.505" y2="66.754" gradientUnits="userSpaceOnUse">
<stop stop-color="white"/>
<stop offset="1" stop-color="#FFFF00"/>
</linearGradient>
<linearGradient id="paint17_linear_600_2049" x1="243.981" y1="7.55078" x2="243.981" y2="67.2975" gradientUnits="userSpaceOnUse">
<stop stop-color="white"/>
<stop offset="1" stop-color="#FFFF00"/>
</linearGradient>
<linearGradient id="paint18_linear_600_2049" x1="227.107" y1="7.5491" x2="227.107" y2="67.2535" gradientUnits="userSpaceOnUse">
<stop stop-color="white"/>
<stop offset="1" stop-color="#FFFF00"/>
</linearGradient>
<clipPath id="clip0_600_2049">
<rect width="262" height="48" fill="white"/>
</clipPath>
</defs>
</svg>
