<svg width="204" height="67" viewBox="0 0 204 67" fill="none" xmlns="http://www.w3.org/2000/svg">
<path d="M93.9579 41.2926L100.784 26.5985C100.948 26.2541 101.079 25.8934 101.177 25.5326L103.606 16.4799C104.131 14.512 103.721 12.4128 102.474 10.7893C101.834 9.95287 100.997 9.29688 100.045 8.85409C99.8484 7.90291 99.4382 6.98452 98.8311 6.18094C97.5841 4.55737 95.6643 3.60619 93.6297 3.60619H80.7822C77.8123 3.60619 75.2034 5.60695 74.4486 8.46049L73.2508 12.9212C73.136 12.79 73.0211 12.6588 72.9227 12.544C72.4961 12.0848 72.0202 11.6584 71.528 11.2812C70.8881 9.90367 70.0841 8.80488 69.2801 7.9521C66.4251 4.88536 62.241 3.32739 56.8428 3.32739H36.6116C31.6891 3.32739 27.4066 4.72137 23.8789 7.47652C20.1706 10.2809 17.5946 14.2496 16.2491 19.3007L11.0313 38.7999C9.55461 44.3102 10.0304 48.9349 12.4752 52.5264C13.1316 53.5596 14.034 54.6584 15.2482 55.626C15.5107 56.1508 15.7897 56.6427 16.1178 57.1183C17.8899 59.9391 21.4833 63.219 28.5716 63.219H50.6077C55.5137 63.219 59.8618 61.5627 63.5208 58.2827C63.5537 58.2663 63.5701 58.2335 63.6029 58.2171C64.1444 57.7251 64.6366 57.1839 65.1288 56.6427C65.6539 57.1347 66.2118 57.5611 66.8517 57.8563C67.0486 58.8075 67.4588 59.7259 68.0659 60.5295C69.3129 62.153 71.2327 63.0878 73.2673 63.0878H86.1148C89.0847 63.0878 91.6936 61.0871 92.4483 58.2335L95.3854 47.2457C95.9104 45.2778 95.5002 43.1786 94.2532 41.555C94.1712 41.4566 94.0891 41.3419 94.0071 41.2435L93.9579 41.2926Z" fill="#231815"/>
<path d="M192.324 31.4201C192.21 31.2725 192.095 31.1413 191.98 31.0101L192.899 27.6154C193.424 25.6474 193.014 23.5483 191.767 21.9247C191.127 21.0883 190.29 20.4323 189.355 19.9895C189.158 19.0383 188.747 18.12 188.14 17.3164C186.893 15.6928 184.974 14.758 182.939 14.758H174.259C174.062 14.348 173.833 13.9708 173.554 13.5936C172.307 11.9701 170.387 11.0353 168.352 11.0353H161.805C158.836 11.0353 156.227 13.0361 155.472 15.8896L154.898 18.038C154.258 17.2016 153.421 16.562 152.486 16.1192C152.289 15.168 151.879 14.2496 151.271 13.446C150.024 11.8225 148.105 10.8877 146.07 10.8877H141.016C139.441 10.8877 137.981 11.4453 136.849 12.3801C135.93 11.9045 134.896 11.6421 133.83 11.6421H112.302C109.332 11.6421 106.723 13.6428 105.969 16.4964L99.0608 42.2931C98.3553 43.0639 97.8466 43.9986 97.5677 45.0154L96.255 49.9189C95.73 51.8869 96.1402 53.9861 97.3872 55.6096C98.0271 56.446 98.8639 57.102 99.7992 57.5448C99.9961 58.496 100.406 59.4143 101.013 60.2179C102.26 61.8415 104.18 62.7763 106.215 62.7763C108.249 62.7763 110.071 62.3991 111.531 61.8251C112.04 61.9563 112.581 62.0219 113.106 62.0219H115.354C116.289 62.5139 117.339 62.7763 118.422 62.7763H123.017C124.608 62.7763 126.101 62.2023 127.25 61.2183C128.431 62.2187 129.924 62.7763 131.483 62.7763H136.242C139.015 62.7763 141.591 61.8579 143.789 60.0539C145.414 58.6764 146.628 57.0856 147.416 55.298C147.448 55.3472 147.481 55.4128 147.514 55.462C148.154 56.2984 148.991 56.9544 149.926 57.3972C150.123 58.3484 150.533 59.2667 151.14 60.0703C152.387 61.6939 154.307 62.6287 156.341 62.6287H162.888C165.235 62.6287 167.335 61.3823 168.5 59.4635C169.796 60.2507 171.306 60.6935 172.914 60.6935H181.2C184.17 60.6935 186.779 58.6928 187.533 55.8228L189.043 50.1977C189.371 48.9841 189.338 47.7214 188.977 46.557C190.421 45.7042 191.537 44.3102 191.996 42.5883L193.473 37.1108C193.998 35.1428 193.588 33.0437 192.341 31.4201H192.324Z" fill="#231815"/>
<path d="M56.8098 9.91996H36.5786C33.1165 9.91996 30.1959 10.8547 27.8331 12.7079C25.257 14.6431 23.5013 17.431 22.5333 21.0225L17.3155 40.5218C16.3474 44.1133 16.5115 46.9832 17.9062 48.9676C19.2024 51.0996 21.5324 52.0999 24.8632 52.0999H46.8993C50.1645 52.0999 52.9867 51.034 55.4315 48.8364C57.7286 46.7044 59.4515 43.7853 60.4524 40.0462L65.6373 20.6782C66.6054 17.0866 66.2116 14.2823 64.456 12.4291C62.8972 10.7727 60.3375 9.90356 56.8098 9.90356V9.91996ZM47.49 40.9974H29.7856L35.1839 20.8421H52.8883L47.49 40.9974Z" fill="url(#paint0_linear_600_2100)"/>
<path d="M78.3208 19.3006L76.9261 38.2094H82.3736L91.1848 19.235L93.6132 10.1824H80.7656L78.3208 19.3006Z" fill="url(#paint1_linear_600_2100)"/>
<path d="M69.5753 51.9851H82.4229L85.3599 40.9973H72.5124L69.5753 51.9851Z" fill="url(#paint2_linear_600_2100)"/>
<path d="M133.633 44.7694C133.222 46.2946 132.697 47.0161 132.008 47.0161H129.038L127.808 51.6244H132.566C133.862 51.6244 134.962 51.1981 135.881 50.4437C136.963 49.5253 137.702 48.4593 138.046 47.1801L146.021 17.4475H140.967L133.633 44.7858V44.7694Z" fill="url(#paint3_linear_600_2100)"/>
<path d="M139.146 19.8254H134.387L127.742 44.6218H132.5L139.146 19.8254Z" fill="url(#paint4_linear_600_2100)"/>
<path d="M124.28 33.1747L124.838 31.1248H120.243L119.686 33.1747H114.172L109.431 50.8536H113.615L117.126 37.7666H118.455L114.747 51.608H119.341L123.049 37.7666H124.378L122.426 45.0645C122.311 45.5237 121.917 45.8189 121.31 45.9337L120.145 50.2632C123.509 50.1812 125.478 49.1316 126.036 46.9996L129.744 33.1583H124.263L124.28 33.1747Z" fill="url(#paint5_linear_600_2100)"/>
<path d="M113.795 30.6657H126.725C129.153 30.6657 130.745 29.4521 131.417 26.9429L133.764 18.2019H112.236L105.197 44.4742C104.935 45.4582 104.459 46.229 103.835 46.7209L102.523 51.6245C104.656 51.6245 106.264 51.0177 107.429 49.8041C108.544 48.7381 109.414 47.0653 110.021 44.7858L113.795 30.6821V30.6657ZM115.912 22.7938H127.66L126.971 25.385C126.856 25.8442 126.413 26.0738 125.724 26.0738H115.042L115.912 22.8102V22.7938Z" fill="url(#paint6_linear_600_2100)"/>
<path d="M182.004 36.2906L183.48 30.8132H164.775L165.924 26.5164H181.511L182.906 21.3013H167.318L168.319 17.5786H161.772L158.228 30.8132H149.286L147.826 36.2906H156.768L152.699 51.4603H159.246L162.347 39.8986L167.745 48.6888C168.057 49.2136 168.582 49.5252 169.271 49.5252H177.557L179.067 43.9001H174.308C173.701 43.9001 173.225 43.6705 172.914 43.1457L170.075 38.7014H162.658L163.298 36.307H182.004V36.2906Z" fill="url(#paint7_linear_600_2100)"/>
<defs>
<linearGradient id="paint0_linear_600_2100" x1="41.4278" y1="12.8087" x2="41.4278" y2="86.1621" gradientUnits="userSpaceOnUse">
<stop stop-color="white"/>
<stop offset="1" stop-color="#FFFF00"/>
</linearGradient>
<linearGradient id="paint1_linear_600_2100" x1="85.2697" y1="12.1119" x2="85.2697" y2="60.8337" gradientUnits="userSpaceOnUse">
<stop stop-color="white"/>
<stop offset="1" stop-color="#FFFF00"/>
</linearGradient>
<linearGradient id="paint2_linear_600_2100" x1="77.4676" y1="41.7538" x2="77.4676" y2="60.8547" gradientUnits="userSpaceOnUse">
<stop stop-color="white"/>
<stop offset="1" stop-color="#FFFF00"/>
</linearGradient>
<linearGradient id="paint3_linear_600_2100" x1="136.914" y1="19.8005" x2="136.914" y2="79.2131" gradientUnits="userSpaceOnUse">
<stop stop-color="white"/>
<stop offset="1" stop-color="#FFFF00"/>
</linearGradient>
<linearGradient id="paint4_linear_600_2100" x1="133.444" y1="21.5326" x2="133.444" y2="64.6381" gradientUnits="userSpaceOnUse">
<stop stop-color="white"/>
<stop offset="1" stop-color="#FFFF00"/>
</linearGradient>
<linearGradient id="paint5_linear_600_2100" x1="119.587" y1="32.535" x2="119.587" y2="68.1426" gradientUnits="userSpaceOnUse">
<stop stop-color="white"/>
<stop offset="1" stop-color="#FFFF00"/>
</linearGradient>
<linearGradient id="paint6_linear_600_2100" x1="118.143" y1="20.5029" x2="118.143" y2="78.6041" gradientUnits="userSpaceOnUse">
<stop stop-color="white"/>
<stop offset="1" stop-color="#FFFF00"/>
</linearGradient>
<linearGradient id="paint7_linear_600_2100" x1="165.653" y1="19.9113" x2="165.653" y2="78.8107" gradientUnits="userSpaceOnUse">
<stop stop-color="white"/>
<stop offset="1" stop-color="#FFFF00"/>
</linearGradient>
</defs>
</svg>
