<svg width="175" height="73" viewBox="0 0 175 73" fill="none" xmlns="http://www.w3.org/2000/svg">
<circle cx="27" cy="35" r="27" fill="#FF8300"/>
<circle cx="87" cy="35" r="27" fill="#FF8300"/>
<circle cx="147" cy="35" r="27" fill="#FF8300"/>
<path d="M13.1113 52.888L9.04525 50.57C10.4513 47.644 12.4653 42.818 13.9473 38.372L17.5953 40.728C16.3413 44.794 14.6693 49.164 13.1113 52.888ZM16.9493 31.532L14.3273 35.18C13.0733 34.002 10.4893 32.482 8.39925 31.532L10.8693 28.226C12.9593 29.024 15.6573 30.354 16.9493 31.532ZM27.5133 24.426V26.592H34.0113V24.426H27.5133ZM38.9893 35.94H32.6053V45.972C33.8213 44.604 34.3533 42.704 34.5053 40.88H35.3033L35.2273 39.968H33.4793V37.194H37.2413C37.3553 40.766 37.8493 43.73 38.9893 45.554V35.94ZM23.4473 37.194H27.2093C27.2853 40.5 27.7033 43.35 28.6533 45.174V35.94H22.4973V46.428C23.7893 44.946 24.2833 42.856 24.4353 40.88H25.2333L25.1573 39.968H23.4473V37.194ZM38.4193 30.354H32.6053V32.178H42.9413V49.43C42.9413 51.216 42.6373 52.052 41.4973 52.622C40.3953 53.192 38.8373 53.23 36.6333 53.23C36.5193 52.204 36.0633 50.836 35.6453 49.924C36.8233 49.962 38.0773 49.962 38.4573 49.924C38.8373 49.924 38.9893 49.81 38.9893 49.43V46.922C38.4953 47.34 38.0013 47.834 37.7353 48.214C37.0133 47.378 36.4433 46.238 36.0633 44.908C35.5693 46.238 34.8093 47.416 33.7073 48.328C33.4793 47.948 33.0613 47.416 32.6053 46.998V53.04H28.6533V47.112C28.2353 47.492 27.8173 47.91 27.5893 48.252C26.9053 47.416 26.4113 46.352 25.9933 45.098C25.5373 46.504 24.7773 47.758 23.7133 48.708C23.4473 48.29 22.9533 47.72 22.4973 47.302V53.23H18.6593V32.178H28.6533V30.354H23.2953V24.426H18.1273V22.032L15.7333 25.3C14.5173 24.084 11.9333 22.412 9.84325 21.462L12.3893 18.118C14.3273 18.954 16.7593 20.322 18.1273 21.424V20.512H23.2953V17.814H27.5133V20.512H34.0113V17.814H38.4193V20.512H43.6253V24.426H38.4193V30.354ZM75.132 48.822H80.072V45.06H75.132V48.822ZM73.08 41.564H82.618C81.364 40.652 79.692 39.588 77.906 38.486C76.424 39.702 74.79 40.728 73.08 41.564ZM86.076 39.094L83.91 41.564H84.024V53.268H80.072V52.318H75.132V53.306H71.37V42.324C70.914 42.514 70.458 42.704 70.002 42.856C69.584 41.83 68.558 40.082 67.836 39.284C70.154 38.6 72.434 37.65 74.41 36.358C73.726 35.94 73.08 35.56 72.434 35.18L74.942 32.558L77.45 33.926C78.248 33.204 78.97 32.33 79.578 31.418H74.98C73.878 33.014 72.548 34.42 70.8 35.674C70.382 34.724 69.318 33.28 68.596 32.71C71.522 30.81 73.27 28.188 74.068 25.68L77.488 26.364C77.298 26.934 77.108 27.504 76.842 28.074H81.63L82.276 27.96L82.314 27.998V25.11H72.092V28.378H68.824V21.538H75.512C75.246 20.702 74.942 19.828 74.676 19.144L78.286 17.89C78.742 18.992 79.274 20.36 79.73 21.538H85.81V28.378H82.846L84.48 29.556C83.568 31.95 82.238 34.002 80.718 35.788C82.77 36.966 84.784 38.182 86.076 39.094ZM91.548 40.082V42.324H98.35V40.082H91.548ZM91.548 34.61V36.89H98.35V34.61H91.548ZM91.548 29.214V31.418H98.35V29.214H91.548ZM102.606 45.782H97.894C99.946 46.998 102.644 48.898 104.088 50.228L101.504 53.306C100.174 51.9 97.286 49.734 95.196 48.328L97.438 45.782H91.776L94.474 48.594C92.194 50.38 88.888 52.28 86.304 53.496C85.886 52.546 85.088 51.102 84.442 50.19C86.76 49.126 89.838 47.302 91.624 45.782H87.52V25.756H92.346C92.498 24.92 92.65 24.008 92.764 23.134H86.57V19.334H103.556V23.134H96.868C96.64 24.046 96.336 24.958 96.07 25.756H102.606V45.782ZM136.735 24.274L132.479 25.756C131.985 24.046 131.073 21.386 130.389 19.372L134.531 18.194C135.215 20.17 136.165 22.678 136.735 24.274ZM147.603 36.624H139.357C138.559 39.93 137.419 43.16 136.051 45.782C136.545 46.124 137.115 46.542 137.837 46.96C140.421 48.518 143.955 48.746 148.401 48.746C152.771 48.746 159.573 48.366 163.791 47.758C163.259 48.974 162.537 51.178 162.461 52.394C159.307 52.584 152.657 52.85 148.211 52.85C143.157 52.85 140.003 52.432 137.267 50.836C135.671 49.962 134.341 48.708 133.581 48.708C132.707 48.708 131.415 51.292 130.579 53.458L127.539 49.126C129.135 47.188 130.845 45.744 132.251 45.098C133.163 43.274 133.961 40.918 134.569 38.676H129.477C130.351 36.548 131.339 33.546 132.289 30.696H128.261V26.668H137.609C136.811 29.252 135.823 32.216 134.911 34.8H137.077L137.723 34.61L139.129 35.218V32.52H148.173V28.378H140.079V24.274H144.867C144.183 22.792 143.119 20.892 142.283 19.372L146.083 17.89C147.147 19.562 148.591 21.956 149.275 23.362L147.185 24.274H152.847C154.063 22.298 155.241 19.752 155.963 17.814L160.523 19.144C159.535 20.892 158.433 22.678 157.407 24.274H161.815V28.378H152.847V32.52H163.031V36.624H153.721C156.761 39.284 160.371 42.362 162.309 44.376L159.155 47.53C157.445 45.516 154.177 42.476 151.175 39.74C149.693 42.628 146.843 45.44 141.941 47.644C141.295 46.694 139.851 45.098 138.787 44.224C144.449 42.172 146.691 39.322 147.603 36.624Z" fill="white"/>
</svg>
