<svg width="459" height="126" viewBox="0 0 459 126" fill="none" xmlns="http://www.w3.org/2000/svg">
<path d="M336.514 43.2531C338.29 41.0314 339.495 38.0483 339.178 35C336.577 35.1293 333.404 36.7154 331.567 38.9389C329.918 40.8429 328.458 43.9509 328.839 46.8715C331.757 47.1246 334.674 45.4125 336.514 43.2531Z" fill="black"/>
<path d="M339.144 47.4417C334.906 47.1892 331.302 49.8475 329.277 49.8475C327.252 49.8475 324.152 47.569 320.799 47.6304C316.436 47.6945 312.387 50.1618 310.172 54.0859C305.617 61.9362 308.97 73.5809 313.399 79.9745C315.55 83.1376 318.142 86.6204 321.558 86.4953C324.785 86.3687 326.05 84.4056 329.973 84.4056C333.893 84.4056 335.032 86.4953 338.449 86.432C341.991 86.3687 344.206 83.2673 346.357 80.1011C348.825 76.4953 349.835 73.0136 349.898 72.8225C349.835 72.7592 343.067 70.1629 343.004 62.3779C342.94 55.8594 348.318 52.7588 348.571 52.5666C345.534 48.0754 340.789 47.569 339.144 47.4417Z" fill="black"/>
<path d="M376.053 38.62C385.266 38.62 391.681 44.9706 391.681 54.2167C391.681 63.4958 385.134 69.8794 375.822 69.8794H365.621V86.1013H358.251V38.62L376.053 38.62ZM365.621 63.6932H374.078C380.495 63.6932 384.146 60.2386 384.146 54.2497C384.146 48.2615 380.495 44.8393 374.111 44.8393H365.621V63.6932Z" fill="black"/>
<path d="M393.607 76.2631C393.607 70.2082 398.247 66.4902 406.473 66.0294L415.949 65.4703V62.8052C415.949 58.9552 413.35 56.652 409.007 56.652C404.893 56.652 402.326 58.6258 401.702 61.7193H394.989C395.384 55.467 400.714 50.8605 409.27 50.8605C417.66 50.8605 423.023 55.3026 423.023 62.2454V86.1013H416.212V80.4088H416.048C414.041 84.2588 409.665 86.6934 405.124 86.6934C398.346 86.6934 393.607 82.4817 393.607 76.2631ZM415.949 73.1372V70.4062L407.427 70.9324C403.182 71.2288 400.78 73.1042 400.78 76.0657C400.78 79.0925 403.281 81.067 407.098 81.067C412.066 81.067 415.949 77.6448 415.949 73.1372Z" fill="black"/>
<path d="M429.454 98.8356V93.0771C429.979 93.2085 431.164 93.2085 431.757 93.2085C435.047 93.2085 436.824 91.8268 437.909 88.2732C437.909 88.2072 438.535 86.1673 438.535 86.1343L426.032 51.4857H433.73L442.484 79.6523H442.615L451.368 51.4857H458.87L445.905 87.9108C442.945 96.3019 439.523 99 432.349 99C431.757 99 429.979 98.934 429.454 98.8356Z" fill="black"/>
<path fill-rule="evenodd" clip-rule="evenodd" d="M269 0H273V126H269V0Z" fill="black"/>
<path d="M23.0148 73.7497C26.3977 73.7435 31.05 72.0986 31.6955 68.5666C31.7328 68.3649 31.7731 68.0421 31.77 67.8931C31.6086 67.1731 30.9134 67.6572 30.5751 67.8062C30.0817 68.0235 26.2301 69.0322 23.0179 69.0322C19.8057 69.0322 15.951 68.0266 15.4575 67.8062C15.1192 67.6572 14.424 67.1762 14.2626 67.8931C14.2626 68.0421 14.303 68.3649 14.3371 68.5666C14.9796 72.0986 19.6319 73.7435 23.0148 73.7497Z" fill="#FF8300"/>
<path d="M37.5769 46.0433C36.9096 46.0433 36.2703 46.2978 35.8233 46.7386C34.8519 47.7038 34.8457 49.2836 35.8109 50.2613C39.4639 53.9422 41.3571 59.026 41.0126 64.2029C40.6836 69.0074 38.508 73.3991 34.8768 76.5711C31.5838 79.442 27.3692 81.0217 23.0024 81.0217C22.5989 81.0217 22.1893 81.0062 21.7858 80.9814C14.9796 80.5003 9.08588 76.3165 6.40747 70.0626C5.54778 68.0484 5.06673 65.9099 4.97983 63.7094C4.92396 62.3687 3.83149 61.3165 2.49074 61.3165H2.39142C1.02274 61.3755 -0.0479978 62.5363 0.00165974 63.905C0.113389 66.7138 0.727899 69.445 1.83278 72.0211C5.24984 79.9975 12.7388 85.3327 21.3823 85.941L21.4568 85.9472C21.9782 85.9814 22.512 86 23.049 86C28.5858 86 33.9488 83.9826 38.1448 80.3203C42.7785 76.2793 45.5562 70.6772 45.9721 64.5412C46.4221 57.9428 44.0044 51.4593 39.3397 46.7572C38.8928 46.3041 38.2473 46.0464 37.5769 46.0464V46.0433Z" fill="#FF8300"/>
<path d="M15.737 56.8596C14.1169 56.8565 12.801 58.0018 12.8041 59.4078V60.4133C12.801 61.8255 14.1169 62.9677 15.7401 62.9677C17.3633 62.9677 18.6761 61.8224 18.6761 60.4133V59.4078C18.6761 57.9987 17.3602 56.8534 15.7401 56.8565L15.737 56.8596Z" fill="#3E3A39"/>
<path d="M30.2867 56.8596C28.6666 56.8565 27.3507 58.0018 27.3538 59.4078V60.4133C27.3507 61.8255 28.6666 62.9677 30.2867 62.9677C31.9098 62.9677 33.2227 61.8224 33.2227 60.4133V59.4078C33.2227 57.9987 31.9036 56.8534 30.2836 56.8565L30.2867 56.8596Z" fill="#3E3A39"/>
<path d="M33.325 42.322C30.7986 41.0619 28.0954 40.286 25.3022 40.0129C24.6101 39.9446 23.9335 40.1494 23.3935 40.587C22.8534 41.0309 22.5152 41.6578 22.4438 42.3592C22.422 42.5796 22.4283 42.8062 22.4655 43.0327C22.4779 43.0979 22.4903 43.16 22.5027 43.2221C22.7572 44.3083 23.6759 45.1091 24.787 45.2177C26.9409 45.4319 29.0296 46.034 30.9942 47.0054C31.6211 47.3189 32.3287 47.3655 32.9898 47.1482C33.6509 46.9247 34.1878 46.4592 34.4981 45.8354C34.7682 45.2922 34.8457 44.6621 34.7061 44.0693C34.5292 43.3089 34.0233 42.6727 33.3219 42.3251L33.325 42.322Z" fill="#3E3A39"/>
<path d="M20.0073 40.944C19.3866 40.4722 18.592 40.3015 17.8317 40.4784C15.0788 41.1147 12.5028 42.2351 10.172 43.8024C9.59473 44.1873 9.20057 44.777 9.06401 45.4567C8.92745 46.1457 9.07022 46.8441 9.45817 47.4275C9.58231 47.6138 9.73129 47.7845 9.90509 47.9334C9.95785 47.9769 10.0075 48.0172 10.0572 48.0545C10.9448 48.7311 12.1614 48.7652 13.0863 48.1445C14.8833 46.934 16.8758 46.0712 19.011 45.5716C19.6907 45.4133 20.268 45.0005 20.6404 44.4077C21.0066 43.8149 21.1246 43.1165 20.9694 42.4368C20.8328 41.844 20.4914 41.3133 20.0073 40.944Z" fill="#3E3A39"/>
<path d="M8.37514 48.4331C7.89098 48.0638 7.28889 47.8682 6.68369 47.8931C5.90468 47.921 5.18155 48.2965 4.7067 48.9173C2.99041 51.1612 1.71483 53.6628 0.914104 56.3537C0.715474 57.0179 0.783748 57.7255 1.11273 58.3338C1.44481 58.9515 1.99726 59.3984 2.67074 59.6063C2.88178 59.6715 3.10524 59.7056 3.3349 59.7118C3.40008 59.7118 3.46525 59.7118 3.52733 59.7118C4.64152 59.6684 5.60363 58.9204 5.9233 57.8496C6.54092 55.7733 7.53097 53.8366 8.85931 52.0954C9.2845 51.5399 9.4676 50.8539 9.3745 50.1618C9.27829 49.4697 8.92758 48.8552 8.37204 48.4331H8.37514Z" fill="#3E3A39"/>
<path d="M214.398 48.2655H230.903C231.716 48.2655 232.377 47.6076 232.377 46.7913C232.377 45.975 231.716 45.3171 230.903 45.3171H214.398C213.585 45.3171 212.924 45.975 212.924 46.7913C212.924 47.6076 213.585 48.2655 214.398 48.2655Z" fill="#1A1A1A"/>
<path d="M206.363 44.8888L198.647 50.8013C198.005 51.2948 197.881 52.2166 198.374 52.8653C198.666 53.247 199.104 53.4425 199.547 53.4425C199.858 53.4425 200.174 53.3463 200.441 53.1414L208.157 47.2321C208.805 46.7386 208.927 45.8106 208.433 45.165C207.933 44.5164 207.009 44.3953 206.363 44.8888Z" fill="#1A1A1A"/>
<path d="M206.363 55.2768L198.647 61.1862C198.005 61.6827 197.881 62.6045 198.374 63.2532C198.666 63.6319 199.104 63.8305 199.547 63.8305C199.858 63.8305 200.174 63.7343 200.441 63.5263L203.039 61.5338V79.9478C203.039 80.7641 203.703 81.4221 204.516 81.4221C205.329 81.4221 205.987 80.7641 205.987 79.9478V59.2743L208.157 57.6138C208.805 57.1203 208.927 56.1923 208.433 55.5468C207.933 54.8981 207.009 54.7771 206.363 55.2736V55.2768Z" fill="#1A1A1A"/>
<path d="M233.131 56.2575H212.173C211.36 56.2575 210.698 56.9186 210.698 57.7318C210.698 58.5449 211.36 59.206 212.173 59.206H224.404V76.9994C224.404 77.8994 224.196 78.3526 223.318 78.3526H220.841V78.3805C220.807 78.3805 220.776 78.3712 220.742 78.3712H215.947C215.13 78.3712 214.469 79.0323 214.469 79.8485C214.469 80.6648 215.127 81.3197 215.947 81.3197H220.742C220.776 81.3197 220.807 81.3104 220.841 81.3104V81.3321H224.028C226.362 81.3321 227.281 80.2303 227.281 77.7411V59.2091H233.128C233.938 59.2091 234.602 58.548 234.602 57.7349C234.602 56.9217 233.938 56.2606 233.128 56.2606L233.131 56.2575Z" fill="#1A1A1A"/>
<path d="M156.324 74.4667V68.0328C156.324 67.3873 155.805 67.0273 155.032 67.0273C154.26 67.0273 153.667 67.3873 153.667 68.0328V74.4667C153.667 75.1185 154.294 75.4816 155.032 75.4816C155.808 75.4816 156.324 75.1216 156.324 74.4667Z" fill="#1A1A1A"/>
<path d="M165.609 67.0273C164.837 67.0273 164.244 67.3873 164.244 68.0328V74.4667C164.244 75.1185 164.871 75.4816 165.609 75.4816C166.385 75.4816 166.901 75.1216 166.901 74.4667V68.0328C166.901 67.3873 166.385 67.0273 165.609 67.0273Z" fill="#1A1A1A"/>
<path d="M166.646 76.9963L161.659 77.6232V64.3892H165.755C166.522 64.3892 167.146 63.7653 167.146 62.9956C167.146 62.2259 166.525 61.6052 165.755 61.6052H161.659V56.4469H165.755C166.522 56.4469 167.146 55.823 167.146 55.0564C167.146 54.2898 166.525 53.6629 165.755 53.6629H154.778C154.008 53.6629 153.385 54.2867 153.385 55.0564C153.385 55.8261 154.008 56.4469 154.778 56.4469H158.872V61.6052H154.778C154.008 61.6052 153.385 62.229 153.385 62.9956C153.385 63.7622 154.008 64.3892 154.778 64.3892H158.872V77.9739L153.543 78.6443C152.779 78.7405 152.239 79.4389 152.336 80.1993C152.432 80.9597 153.127 81.5028 153.887 81.4035L166.988 79.7585C167.748 79.6623 168.288 78.9671 168.195 78.2067C168.099 77.4432 167.4 76.9031 166.643 76.9994L166.646 76.9963Z" fill="#1A1A1A"/>
<path d="M188.725 78.756C186.003 76.7914 184.054 74.4264 182.661 72.139L187.977 68.1756C188.632 67.6883 188.762 66.7665 188.278 66.1147C187.791 65.4599 186.866 65.3264 186.214 65.8137L181.261 69.5102C180.249 67.3097 179.737 65.3947 179.498 64.2898H183.874C186.41 64.2898 187.511 63.3742 187.511 60.9968V48.9359C187.511 46.5989 186.41 45.6802 183.914 45.6802H173.117C170.625 45.6802 169.523 46.5958 169.523 48.9359V80.1092C169.523 80.1092 169.684 81.8659 171.779 81.1272V81.1117L178.961 78.8553C179.74 78.6132 180.168 77.7814 179.926 77.0086C179.684 76.2327 178.856 75.8044 178.077 76.0434L172.506 77.7938V64.2929H176.488C176.72 65.6026 177.419 68.6815 179.247 72.1514C179.293 72.3345 179.374 72.5083 179.492 72.6697C179.517 72.7038 179.548 72.7256 179.576 72.7566C181.165 75.5996 183.52 78.6442 187.003 81.152C187.263 81.3444 187.564 81.4313 187.862 81.4313C188.322 81.4313 188.772 81.2203 189.063 80.823C189.538 80.1619 189.389 79.2402 188.728 78.7653L188.725 78.756ZM172.506 49.6436C172.506 48.7652 172.959 48.5573 173.815 48.5573H183.182C184.085 48.5573 184.532 48.7683 184.532 49.6436V53.6504H172.506V49.6436ZM172.506 56.4468H184.532V60.4505C184.532 61.2823 184.082 61.5337 183.182 61.5337H172.506V56.4437V56.4468Z" fill="#1A1A1A"/>
<path d="M164.976 46.2761C164.706 45.8478 164.235 45.5902 163.729 45.5902H156.162C155.647 45.5902 155.166 45.8633 154.902 46.3009L151.873 51.3134C151.451 52.0086 151.677 52.9179 152.37 53.34C152.608 53.4828 152.872 53.5511 153.13 53.5511C153.63 53.5511 154.117 53.2997 154.393 52.8403L156.988 48.5418H162.916L165.656 52.8683C166.094 53.5573 167 53.7622 167.689 53.3214C168.375 52.8869 168.58 51.9744 168.145 51.2885L164.97 46.2792L164.976 46.2761Z" fill="#1A1A1A"/>
<path d="M95.2199 77.5828H79.8075V64.9477H91.2318C92.0915 64.9477 92.7898 64.2525 92.7898 63.3897C92.7898 62.5269 92.0915 61.8316 91.2318 61.8316H79.8075V50.4412H93.0567C93.9195 50.4412 94.6147 49.7428 94.6147 48.8831C94.6147 48.0234 93.9164 47.3282 93.0567 47.3282H63.4453C62.5825 47.3282 61.8873 48.0265 61.8873 48.8831C61.8873 49.7397 62.5825 50.4412 63.4453 50.4412H76.6915V61.8316H65.2671C64.4074 61.8316 63.7091 62.53 63.7091 63.3897C63.7091 64.2494 64.4074 64.9477 65.2671 64.9477H76.6915V77.5828H61.2821C60.4224 77.5828 59.7241 78.2811 59.7241 79.1408C59.7241 80.0005 60.4224 80.6989 61.2821 80.6989H95.2199C96.0796 80.6989 96.7779 80.0005 96.7779 79.1408C96.7779 78.2811 96.0827 77.5828 95.2199 77.5828Z" fill="#1A1A1A"/>
<path d="M117.557 52.2165H127.709V54.8733H125.642C125.642 54.8733 125.638 54.8856 125.632 54.8887H122.02C119.77 54.8887 118.708 55.8106 118.708 58.0173V72.5797C118.708 74.836 119.729 75.7517 122.02 75.7517H136.101C138.432 75.7517 139.493 74.836 139.493 72.5797V58.0173C139.493 55.8075 138.432 54.8887 136.101 54.8887H130.489V52.2196H140.647C141.414 52.2196 142.038 51.5989 142.038 50.8292C142.038 50.0595 141.417 49.4387 140.647 49.4387H135.111L136.706 46.6547C137.088 45.9874 136.858 45.1401 136.194 44.7553C135.527 44.3735 134.676 44.6063 134.294 45.2705L131.926 49.3953C131.926 49.3953 131.914 49.4263 131.905 49.4418H126.293C126.293 49.4418 126.281 49.4108 126.272 49.3953L123.907 45.2705C123.525 44.6063 122.675 44.3766 122.007 44.7553C121.343 45.1401 121.113 45.9874 121.495 46.6547L123.09 49.4387H117.554C116.784 49.4387 116.163 50.0626 116.163 50.8292C116.163 51.5958 116.787 52.2196 117.554 52.2196L117.557 52.2165ZM136.554 72.0365C136.554 72.8311 136.184 73.0825 135.405 73.0825H122.839C122.023 73.0825 121.657 72.8311 121.657 72.0365V69.3674H136.557V72.0365H136.554ZM136.554 66.8658H121.653V63.3618H136.554V66.8658ZM136.554 58.5201V60.8602H121.653V58.5201C121.653 57.6883 122.023 57.4772 122.836 57.4772H135.402C136.181 57.4772 136.551 57.6852 136.551 58.5201H136.554Z" fill="#1A1A1A"/>
<path d="M107.287 48.8832C108.103 49.6932 108.752 50.3326 112.023 54.6529C112.315 55.0377 112.752 55.2364 113.199 55.2364C113.506 55.2364 113.82 55.1402 114.087 54.9353C114.736 54.445 114.863 53.5232 114.372 52.8714C110.971 48.3835 110.26 47.6758 109.357 46.782L109.227 46.6548C108.652 46.0806 107.715 46.0837 107.141 46.664C106.567 47.2413 106.573 48.1756 107.15 48.7497L107.284 48.8801L107.287 48.8832Z" fill="#1A1A1A"/>
<path d="M141.461 78.2253C141.302 78.2253 126.483 78.7684 120.896 78.2253C117.153 77.8653 115.412 75.3916 114.823 74.3054V64.445C114.823 62.9459 114.394 61.9466 113.448 61.4717C113.199 61.2793 112.889 61.1613 112.551 61.1613H112.194C112.079 61.1551 111.964 61.1489 111.843 61.1489H110.595V61.1613H106.986C106.173 61.1613 105.512 61.8193 105.512 62.6356C105.512 63.4518 106.173 64.1098 106.986 64.1098H110.595H110.782C111.514 64.1098 111.765 64.3177 111.765 65.1092V73.6381L106.421 78.6164C105.825 79.1719 105.791 80.1061 106.347 80.702C106.899 81.2948 107.833 81.329 108.429 80.7734L112.833 76.6735C114.031 78.396 116.412 80.7579 120.611 81.1614C122.591 81.3538 125.701 81.4159 128.962 81.4159C135.219 81.4159 141.132 81.18 141.56 81.1645C142.373 81.1365 143.012 80.4537 142.981 79.6406C142.953 78.8274 142.255 78.1787 141.458 78.2191L141.461 78.2253Z" fill="#1A1A1A"/>
</svg>
