<svg width="535" height="511" viewBox="0 0 535 511" fill="none" xmlns="http://www.w3.org/2000/svg">
<circle cx="278" cy="270" r="216.5" stroke="#FF8300"/>
<path d="M446.764 426.761C434.225 428.885 432.504 430.607 430.382 443.161C428.26 430.609 426.539 428.885 414 426.761C426.539 424.636 428.26 422.913 430.382 410.36C432.504 422.913 434.225 424.636 446.764 426.761Z" fill="url(#paint0_linear_600_1153)"/>
<path d="M128 93.9324C108.482 97.2527 105.803 99.9441 102.5 119.564C99.197 99.9461 96.5182 97.2527 77 93.9324C96.5182 90.6121 99.197 87.9188 102.5 68.3013C105.803 87.9188 108.482 90.6121 128 93.9324Z" fill="url(#paint1_linear_600_1153)"/>
<path d="M153 60.3787C141.136 62.3709 139.508 63.9857 137.5 75.7574C135.492 63.9869 133.864 62.3709 122 60.3787C133.864 58.3865 135.492 56.7705 137.5 45C139.508 56.7705 141.136 58.3865 153 60.3787Z" fill="url(#paint2_linear_600_1153)"/>
<defs>
<linearGradient id="paint0_linear_600_1153" x1="414" y1="426.761" x2="446.764" y2="426.761" gradientUnits="userSpaceOnUse">
<stop stop-color="#A18CD1"/>
<stop offset="1" stop-color="#FBC2EB"/>
</linearGradient>
<linearGradient id="paint1_linear_600_1153" x1="77" y1="93.9324" x2="128" y2="93.9324" gradientUnits="userSpaceOnUse">
<stop stop-color="#A18CD1"/>
<stop offset="1" stop-color="#FBC2EB"/>
</linearGradient>
<linearGradient id="paint2_linear_600_1153" x1="122" y1="60.3787" x2="153" y2="60.3787" gradientUnits="userSpaceOnUse">
<stop stop-color="#A18CD1"/>
<stop offset="1" stop-color="#FBC2EB"/>
</linearGradient>
</defs>
</svg>
